<svg id="_1" data-name=" 1" xmlns="http://www.w3.org/2000/svg" viewBox="0 0 800 400"><defs><style>.cls-1{fill:#a4afb5;}.cls-2{fill:#bdb2ad;}.cls-3{fill:#d2b4a5;}.cls-4{fill:#f4b79a;}.cls-5{fill:#f8c588;}.cls-6{fill:#facd81;}.cls-7{fill:#ffde6b;}.cls-8{fill:#c18e6c;}.cls-9{fill:#f9c29d;}</style></defs><title>11_ODA [Converted]</title><rect class="cls-1" width="800" height="400"/><path class="cls-2" d="M800,51.66V400H0V72.11c21.68-11.6,48.44-6,48.44-6,17.47-36.44,67.68-21.87,67.68-21.87,4.37-17.69,29.48-9.36,29.48-9.36-1.09-18.74,22.92-13.54,22.92-13.54,15.3-26,41.49,1,41.49,1C229.66,5.68,236.2,32.74,236.2,32.74c6.56-9.37,15.29,6.25,15.29,6.25,5.45-12.49,21.83-6.25,21.83-6.25,38.21-26,70.95,7.29,70.95,7.29,38.22-20.82,52.41,13.53,52.41,13.53,20.73-14.57,36,13.54,36,13.54C439.25,40,472,56.69,472,56.69c4.37-59.34,76.43-36.44,76.43-36.44,12-29.15,38.19-4.16,38.19-4.16C601.9.47,617.18,32.74,617.18,32.74c24-12.49,20.74,15.62,20.74,15.62,31.66-27.07,60,5.2,60,5.2-1.09-7.28,18.56-6.24,18.56-6.24,28.38-29.15,71,3.12,71,3.12A76.46,76.46,0,0,1,800,51.66Z"/><path class="cls-3" d="M800,99.28V283H0V122.76C7.11,117,20.86,108.07,32.56,113c-.31-.68-13-29,30.11-30,0,0,40.48-31,67.46-3,0,0,18.68-1,17.64,6,0,0,27-31,57.08-5,0,0-3.1-27,19.73-15,0,0,14.53-31,29.06-16,0,0,24.9-24,36.32,4,0,0,68.51-22,72.65,35,0,0,31.14-16,37.37,10,0,0,14.52-27,34.25-13,0,0,13.49-33,49.82-13,0,0,31.13-32,67.46-7,0,0,15.56-6,20.75,6,0,0,8.31-15,14.53-6,0,0,6.23-26,24.91-10,0,0,24.91-26,39.45-1,0,0,22.83-5,21.79,13,0,0,23.87-8,28,9,0,0,47.74-14,64.34,21C765.3,98,782.46,94.41,800,99.28Z"/><path class="cls-4" d="M800,131.24V400H0V92.18A63,63,0,0,1,15.74,94s32.38-36,68.11-3c0,0,16.75-7,19,3,0,0,38-39,65.9,1,0,0,27.91-1,25.67,20,0,0,27.92-9,27.92,17,0,0,22.34-7,32.39,9,0,0,50.25-6,64.77,26,0,0,4.47-39,33.5-25,0,0,5.59-19,15.64-6,0,0,8.93-25,24.57-10,0,0,15.62-19,25.68,1,0,0,25.68-11,30.15,11,0,0,31.26-5,38,19,0,0,19-20,31.26-2,0,0-2.23-36,29-22,0,0,7.82-26,21.22-11,0,0-1.12-31,26.8-20,0,0,38-27,53.6,13,0,0,34.62-45,72.59-12,0,0,25.69-27,33.5,2,0,0,32.38-11,33.5,29A100.49,100.49,0,0,1,800,131.24Z"/><path class="cls-5" d="M800,129.48V400H0V154.32c4.42-2.24,9.14-2.3,12.62,3.68,0,0,8.74-43,30.1-13,0,0,26.21-1,16.5,11,0,0,18.84,22.31-4.71,18.2,3.31.71,12.79,3.5,9.57,11.8,0,0,11.65-16,19.42-8,0,0,10.67-45,35.92-15,0,0,37.86-33,52.42,3,0,0,37.87-9,36.9,16,0,0,10.68-9,14.56,2,0,0,5.83-18,17.48-8,0,0,0-27,15.53-17,0,0,0-42,31.07-25,0,0,15.53-41,33-19,0,0,41.75-20,52.43,18,0,0,29.12-2,28.15,22,0,0,26.21,15,10.68,27,0,0,24.27-9,24.27,0,0,0,12.62-44,34-25,0,0,12.62-25,26.22-2,0,0,33,0,25.25,22,.4-.8,9-17.69,20.38-6,0,0,10.68-46,47.57-26,0,0,11.65-36,36.89-9,0,0,27.19-16,38.84,11,0,0,29.12-13,37.86,20,0,0,21.36-44,52.43-16C755.34,151,777.65,129.68,800,129.48Z"/><path class="cls-6" d="M800,267.85V400H0V221.67A17,17,0,0,1,8.73,223c-.28-.68-12.13-29,28.16-30,0,0,37.86-31,63.1-3,0,0,17.47-1,16.5,6,0,0,25.24-31,53.39-5,0,0-2.91-27,18.45-15,0,0,13.59-31,27.18-16,0,0,23.3-24,34,4,0,0,64.07-22,67.95,35,0,0,29.12-16,34.95,10,0,0,13.59-27,32-13,0,0,12.62-33,46.6-13,0,0,29.12-32,63.1-7,0,0,14.56-6,19.42,6,0,0,7.76-15,13.59-6,0,0,5.82-26,23.3-10,0,0,23.29-26,36.88-1,0,0,21.36-5,20.39,13,0,0,22.33-8,26.21,9,0,0,44.66-14,60.19,21,0,0,41.34-9.26,59.18,22.12,28.35,5.6,18.38,29.44,18.11,30.08C781.26,255.76,792.64,262.18,800,267.85Z"/><path class="cls-7" d="M800,286.85V400H0V283.67c.6-.9,1.21-1.76,1.85-2.58,19.94-26,57.79-17.49,57.79-17.49,16.14-36.44,62.51-21.87,62.51-21.87,4-17.69,27.23-9.36,27.23-9.36-1-18.74,21.17-13.54,21.17-13.54,14.12-26,38.31,1,38.31,1,18.15-16.65,24.2,10.41,24.2,10.41,6.05-9.37,14.12,6.25,14.12,6.25,5-12.49,20.16-6.25,20.16-6.25,35.28-26,65.53,7.29,65.53,7.29,35.29-20.82,48.4,13.53,48.4,13.53,19.16-14.57,33.27,13.54,33.27,13.54,6-27.07,36.3-10.41,36.3-10.41,4-59.34,70.57-36.44,70.57-36.44,11.09-29.15,35.29-4.16,35.29-4.16,14.12-15.62,28.23,16.65,28.23,16.65,22.18-12.49,19.16,15.62,19.16,15.62,29.24-27.07,55.44,5.2,55.44,5.2-1-7.28,17.15-6.24,17.15-6.24,26.22-29.15,65.54,3.12,65.54,3.12a65.11,65.11,0,0,1,11.17,1.14c28.29,5.6,18.34,29.44,18.07,30.08C781.31,274.76,792.66,281.18,800,286.85Z"/><polygon class="cls-8" points="258.37 400 226.41 400 226.41 284.51 258.37 314.89 258.37 400"/><polygon class="cls-8" points="141.77 400 119.12 400 119.12 318.14 141.77 339.67 141.77 400"/><polygon class="cls-8" points="692.27 318.57 679.14 310.99 674.74 276.59 671.37 311.62 657.51 318.41 666.82 318.45 666.82 400 682.96 400 682.96 318.53 692.27 318.57"/><rect class="cls-8" x="357.32" y="311.16" width="41.92" height="88.84"/><polygon class="cls-8" points="446.29 280.66 446.29 271.19 441.38 271.19 441.38 263.46 437.87 263.46 437.87 256.09 428.33 256.09 428.33 255.9 435.06 255.9 435.06 249.62 428.33 249.62 428.33 223.8 424.94 223.8 424.94 249.62 419.27 249.62 419.27 255.9 424.94 255.9 424.94 256.09 416.11 256.09 416.11 263.46 412.25 263.46 412.25 271.19 406.98 271.19 406.98 280.66 403.47 280.66 403.47 400 451.21 400 451.21 280.66 446.29 280.66"/><polygon class="cls-8" points="205.15 307.4 205.15 295.75 189 295.75 189 307.4 184.44 307.4 184.44 400 215.32 400 215.32 307.4 205.15 307.4"/><polygon class="cls-8" points="797.79 307.4 797.79 295.75 774.08 295.75 774.08 307.4 767.37 307.4 767.37 400 800 400 800 307.4 797.79 307.4"/><rect class="cls-8" x="215.32" y="348.58" width="7.02" height="51.42"/><rect class="cls-8" x="231.7" y="371.22" width="9.54" height="28.78"/><polygon class="cls-8" points="271.11 359.29 271.11 345.6 263.41 345.6 263.41 340.04 257.76 340.04 257.76 359.29 257.76 400 284.47 400 284.47 359.29 271.11 359.29"/><polygon class="cls-8" points="345.87 345.6 345.87 331.86 338.52 331.86 338.52 345.6 337.82 345.6 337.82 319.27 330.8 319.27 330.8 345.6 329.75 345.6 329.75 400 357.59 400 357.59 345.6 345.87 345.6"/><polygon class="cls-8" points="510.51 352.79 510.51 330.91 497.88 330.91 497.88 309.03 492.26 309.03 492.26 287.54 479.62 287.54 479.62 309.03 473.31 309.03 473.31 330.91 461.37 330.91 461.37 352.79 452.95 352.79 452.95 400 519.64 400 519.64 352.79 510.51 352.79"/><rect class="cls-8" x="80.95" y="280.95" width="35.59" height="119.05"/><rect class="cls-8" x="58.3" y="303.59" width="22.65" height="96.41"/><rect class="cls-8" x="34.56" y="338.53" width="23.74" height="61.47"/><rect class="cls-8" y="313.53" width="6.3" height="86.47"/><rect class="cls-8" x="730.42" y="280.95" width="35.59" height="119.05"/><rect class="cls-8" x="707.77" y="303.59" width="22.65" height="96.41"/><rect class="cls-8" x="684.48" y="338.53" width="23.29" height="61.47"/><path class="cls-8" d="M564.61,322.58V302.24H566v-5.65h-4v-4.24H520.81v4.24h-4v5.65h1.42v20.34h-7.7l7.58,6.22h.12V400h46.34V328.8h.11l7.58-6.22Zm-26.75-19.21h7.53v7.52h-7.53Zm0,8.87h7.53v7.52h-7.53Zm-10.75,80.59h-7.52v-7.52h7.52Zm0-9.32h-7.52V376h7.52Zm0-9.33h-7.52v-7.52h7.52Zm0-9.32h-7.52v-7.53h7.52Zm0-9.32h-7.52V340.38h7.52Zm0-16.67h-7.52v-7.53h7.52Zm0-19.11h-7.52v-7.52h7.52Zm0-8.87h-7.52v-7.52h7.52Zm9.14,81.94h-7.53v-7.52h7.53Zm0-9.32h-7.53V376h7.53Zm0-9.33h-7.53v-7.52h7.53Zm0-9.32h-7.53v-7.53h7.53Zm0-9.32h-7.53V340.38h7.53Zm0-16.67h-7.53v-7.53h7.53Zm0-19.11h-7.53v-7.52h7.53Zm0-8.87h-7.53v-7.52h7.53Zm9.14,81.94h-7.53v-7.52h7.53Zm0-9.32h-7.53V376h7.53Zm0-9.33h-7.53v-7.52h7.53Zm0-9.32h-7.53v-7.53h7.53Zm0-9.32h-7.53V340.38h7.53Zm0-16.67h-7.53v-7.53h7.53Zm9.14,54H547v-7.52h7.53Zm0-9.32H547V376h7.53Zm0-9.33H547v-7.52h7.53Zm0-9.32H547v-7.53h7.53Zm0-9.32H547V340.38h7.53Zm0-16.67H547v-7.53h7.53Zm0-19.11H547v-7.52h7.53Zm0-8.87H547v-7.52h7.53Zm9.13,81.94h-7.52v-7.52h7.52Zm0-9.32h-7.52V376h7.52Zm0-9.33h-7.52v-7.52h7.52Zm0-9.32h-7.52v-7.53h7.52Zm0-9.32h-7.52V340.38h7.52Zm0-16.67h-7.52v-7.53h7.52Zm0-19.11h-7.52v-7.52h7.52Zm0-8.87h-7.52v-7.52h7.52Z"/><path class="cls-9" d="M49.54,341.44V400H117.8V341.44Zm5.18,52.9H51.48v-8.09h3.24Zm0-10.35H51.48V375.9h3.24Zm0-10.36H51.48v-8.08h3.24Zm0-10.35H51.48v-8.09h3.24Zm0-10.35H51.48v-8.09h3.24Zm5.5,41.41H57v-8.09h3.24Zm0-10.35H57V375.9h3.24Zm0-10.36H57v-8.08h3.24Zm0-10.35H57v-8.09h3.24Zm0-10.35H57v-8.09h3.24Zm5.5,41.41H62.48v-8.09h3.24Zm0-10.35H62.48V375.9h3.24Zm0-10.36H62.48v-8.08h3.24Zm0-10.35H62.48v-8.09h3.24Zm0-10.35H62.48v-8.09h3.24Zm5.5,41.41H68v-8.09h3.24Zm0-10.35H68V375.9h3.24Zm0-10.36H68v-8.08h3.24Zm0-10.35H68v-8.09h3.24Zm0-10.35H68v-8.09h3.24Zm5.5,41.41H73.48v-8.09h3.24Zm0-10.35H73.48V375.9h3.24Zm0-10.36H73.48v-8.08h3.24Zm0-10.35H73.48v-8.09h3.24Zm0-10.35H73.48v-8.09h3.24ZM88,387.38H79v-3.56H88ZM88,378H79v-3.56H88Zm0-9.38H79v-3.56H88Zm0-9.38H79v-3.56H88Zm0-9.39H79V346.3H88Zm5.5,44.49H90.31v-8.09h3.23Zm0-10.35H90.31V375.9h3.23Zm0-10.36H90.31v-8.08h3.23Zm0-10.35H90.31v-8.09h3.23Zm0-10.35H90.31v-8.09h3.23ZM99,394.34H95.81v-8.09H99ZM99,384H95.81V375.9H99Zm0-10.36H95.81v-8.08H99Zm0-10.35H95.81v-8.09H99Zm0-10.35H95.81v-8.09H99Zm5.5,41.41h-3.23v-8.09h3.23Zm0-10.35h-3.23V375.9h3.23Zm0-10.36h-3.23v-8.08h3.23Zm0-10.35h-3.23v-8.09h3.23Zm0-10.35h-3.23v-8.09h3.23Zm5.5,41.41h-3.23v-8.09H110ZM110,384h-3.23V375.9H110Zm0-10.36h-3.23v-8.08H110Zm0-10.35h-3.23v-8.09H110Zm0-10.35h-3.23v-8.09H110Zm5.5,41.41h-3.23v-8.09h3.23Zm0-10.35h-3.23V375.9h3.23Zm0-10.36h-3.23v-8.08h3.23Zm0-10.35h-3.23v-8.09h3.23Zm0-10.35h-3.23v-8.09h3.23Z"/><path class="cls-8" d="M34,263.48c-.79-5.65-6.75-10-14-10s-13.18,4.38-14,10H5.1V400H34.87V263.48ZM12.22,395.79H8.34V377h3.88Zm0-21H8.34v-3.24h3.88Zm0-5.5H8.34V366h3.88Zm0-5.5H8.34v-3.24h3.88Zm0-5.18H8.34v-9.71h3.88Zm0-11.32H8.34V344h3.88Zm0-5.5H8.34v-3.24h3.88Zm0-5.5H8.34V333h3.88Zm0-5.18H8.34v-9.7h3.88Zm0-12H8.34v-3.23h3.88Zm0-4.53H8.34V295.83h3.88Zm0-20.38H8.34V291h3.88Zm0-5.5H8.34v-3.24h3.88Zm0-5.5H8.34V280h3.88Zm0-5.18H8.34v-9.7h3.88Zm6.47,117.76H14.81V377h3.88Zm0-21H14.81v-3.24h3.88Zm0-5.5H14.81V366h3.88Zm0-5.5H14.81v-3.24h3.88Zm0-5.18H14.81v-9.71h3.88Zm0-11.32H14.81V344h3.88Zm0-5.5H14.81v-3.24h3.88Zm0-5.5H14.81V333h3.88Zm0-5.18H14.81v-9.7h3.88Zm0-12H14.81v-3.23h3.88Zm0-4.53H14.81V295.83h3.88Zm0-20.38H14.81V291h3.88Zm0-5.5H14.81v-3.24h3.88Zm0-5.5H14.81V280h3.88Zm0-5.18H14.81v-9.7h3.88Zm6.47,117.76H21.28V377h3.88Zm0-21H21.28v-3.24h3.88Zm0-5.5H21.28V366h3.88Zm0-5.5H21.28v-3.24h3.88Zm0-5.18H21.28v-9.71h3.88Zm0-11.32H21.28V344h3.88Zm0-5.5H21.28v-3.24h3.88Zm0-5.5H21.28V333h3.88Zm0-5.18H21.28v-9.7h3.88Zm0-12H21.28v-3.23h3.88Zm0-4.53H21.28V295.83h3.88Zm0-20.38H21.28V291h3.88Zm0-5.5H21.28v-3.24h3.88Zm0-5.5H21.28V280h3.88Zm0-5.18H21.28v-9.7h3.88Zm6.47,117.76H27.75V377h3.88Zm0-21H27.75v-3.24h3.88Zm0-5.5H27.75V366h3.88Zm0-5.5H27.75v-3.24h3.88Zm0-5.18H27.75v-9.71h3.88Zm0-11.32H27.75V344h3.88Zm0-5.5H27.75v-3.24h3.88Zm0-5.5H27.75V333h3.88Zm0-5.18H27.75v-9.7h3.88Zm0-12H27.75v-3.23h3.88Zm0-4.53H27.75V295.83h3.88Zm0-20.38H27.75V291h3.88Zm0-5.5H27.75v-3.24h3.88Zm0-5.5H27.75V280h3.88Zm0-5.18H27.75v-9.7h3.88Z"/><path class="cls-8" d="M566.33,252.19V400h45.39V252.19Zm10.86,143.26h-5.92V375.13h5.92Zm0-22.77h-5.92v-3.5h5.92Zm0-5.95h-5.92v-3.51h5.92Zm0-6h-5.92v-3.5h5.92Zm0-5.6h-5.92V344.66h5.92Zm0-12.26h-5.92v-3.5h5.92Zm0-6h-5.92v-3.5h5.92Zm0-5.95h-5.92v-3.5h5.92Zm0-5.6h-5.92V314.89h5.92Zm0-13h-5.92v-3.5h5.92Zm0-4.9h-5.92V287.22h5.92Zm0-22.07h-5.92V282h5.92Zm0-6h-5.92V276h5.92Zm0-5.95h-5.92v-3.5h5.92Zm0-5.6h-5.92V257.45h5.92Zm9.86,127.49h-5.92V375.13h5.92Zm0-22.77h-5.92v-3.5h5.92Zm0-5.95h-5.92v-3.51h5.92Zm0-6h-5.92v-3.5h5.92Zm0-5.6h-5.92V344.66h5.92Zm0-12.26h-5.92v-3.5h5.92Zm0-6h-5.92v-3.5h5.92Zm0-5.95h-5.92v-3.5h5.92Zm0-5.6h-5.92V314.89h5.92Zm0-13h-5.92v-3.5h5.92Zm0-4.9h-5.92V287.22h5.92Zm0-22.07h-5.92V282h5.92Zm0-6h-5.92V276h5.92Zm0-5.95h-5.92v-3.5h5.92Zm0-5.6h-5.92V257.45h5.92Zm9.87,127.49H591V375.13h5.92Zm0-22.77H591v-3.5h5.92Zm0-5.95H591v-3.51h5.92Zm0-6H591v-3.5h5.92Zm0-5.6H591V344.66h5.92Zm0-12.26H591v-3.5h5.92Zm0-6H591v-3.5h5.92Zm0-5.95H591v-3.5h5.92Zm0-5.6H591V314.89h5.92Zm0-13H591v-3.5h5.92Zm0-4.9H591V287.22h5.92Zm0-22.07H591V282h5.92Zm0-6H591V276h5.92Zm0-5.95H591v-3.5h5.92Zm0-5.6H591V257.45h5.92Zm9.86,127.49h-5.91V375.13h5.91Zm0-22.77h-5.91v-3.5h5.91Zm0-5.95h-5.91v-3.51h5.91Zm0-6h-5.91v-3.5h5.91Zm0-5.6h-5.91V344.66h5.91Zm0-12.26h-5.91v-3.5h5.91Zm0-6h-5.91v-3.5h5.91Zm0-5.95h-5.91v-3.5h5.91Zm0-5.6h-5.91V314.89h5.91Zm0-13h-5.91v-3.5h5.91Zm0-4.9h-5.91V287.22h5.91Zm0-22.07h-5.91V282h5.91Zm0-6h-5.91V276h5.91Zm0-5.95h-5.91v-3.5h5.91Zm0-5.6h-5.91V257.45h5.91Z"/><path class="cls-9" d="M731.89,304.24V400h22V304.24Zm5.27,92.81h-2.87V383.89h2.87Zm0-14.75h-2.87V380h2.87Zm0-3.86h-2.87v-2.27h2.87Zm0-3.86h-2.87v-2.26h2.87Zm0-3.63h-2.87v-6.8h2.87Zm0-7.94h-2.87v-2.27h2.87Zm0-3.86h-2.87v-2.27h2.87Zm0-3.85h-2.87V353h2.87Zm0-3.64h-2.87v-6.8h2.87Zm0-8.39h-2.87V341h2.87Zm0-3.18h-2.87V326.93h2.87Zm0-14.29h-2.87v-2.27h2.87Zm0-3.86h-2.87v-2.27h2.87Zm0-3.86h-2.87v-2.27h2.87Zm0-3.63h-2.87v-6.81h2.87Zm4.79,82.6h-2.88V383.89H742Zm0-14.75h-2.88V380H742Zm0-3.86h-2.88v-2.27H742Zm0-3.86h-2.88v-2.26H742Zm0-3.63h-2.88v-6.8H742Zm0-7.94h-2.88v-2.27H742Zm0-3.86h-2.88v-2.27H742Zm0-3.85h-2.88V353H742Zm0-3.64h-2.88v-6.8H742Zm0-8.39h-2.88V341H742Zm0-3.18h-2.88V326.93H742Zm0-14.29h-2.88v-2.27H742Zm0-3.86h-2.88v-2.27H742Zm0-3.86h-2.88v-2.27H742Zm0-3.63h-2.88v-6.81H742Zm4.79,82.6h-2.88V383.89h2.88Zm0-14.75h-2.88V380h2.88Zm0-3.86h-2.88v-2.27h2.88Zm0-3.86h-2.88v-2.26h2.88Zm0-3.63h-2.88v-6.8h2.88Zm0-7.94h-2.88v-2.27h2.88Zm0-3.86h-2.88v-2.27h2.88Zm0-3.85h-2.88V353h2.88Zm0-3.64h-2.88v-6.8h2.88Zm0-8.39h-2.88V341h2.88Zm0-3.18h-2.88V326.93h2.88Zm0-14.29h-2.88v-2.27h2.88Zm0-3.86h-2.88v-2.27h2.88Zm0-3.86h-2.88v-2.27h2.88Zm0-3.63h-2.88v-6.81h2.88Zm4.78,82.6h-2.87V383.89h2.87Zm0-14.75h-2.87V380h2.87Zm0-3.86h-2.87v-2.27h2.87Zm0-3.86h-2.87v-2.26h2.87Zm0-3.63h-2.87v-6.8h2.87Zm0-7.94h-2.87v-2.27h2.87Zm0-3.86h-2.87v-2.27h2.87Zm0-3.85h-2.87V353h2.87Zm0-3.64h-2.87v-6.8h2.87Zm0-8.39h-2.87V341h2.87Zm0-3.18h-2.87V326.93h2.87Zm0-14.29h-2.87v-2.27h2.87Zm0-3.86h-2.87v-2.27h2.87Zm0-3.86h-2.87v-2.27h2.87Zm0-3.63h-2.87v-6.81h2.87Z"/><path class="cls-8" d="M343.9,382.63h-7.85c0-.43.06-87,.06-87l-4-9.17h-4.65V264.31l-3-2.69h-1.35v-4.5h-.24l-20.28-18-20.28,18H282v4.5h-1.35l-3,2.69v22.17h-4.65l-4,9.17s0,86.55.06,87h-7.85V400H343.9Zm-22-114.26v5.25h-5.79v-9.16h5.79Zm0,6.87v9.16h-5.79v-9.16Zm-.3,14.68v9.16h-5.79v-9.16Zm0,12v9.16h-5.79V301.9Zm0,12V323h-5.79v-9.16Zm0,12V335h-5.79v-9.15Zm0,12V347h-5.79v-9.15Zm0,12V359h-5.79v-9.15Zm0,12V371h-5.79v-9.16Zm0,12v8.84h-5.79v-8.84Zm-24.26-59.91V323h-5.79v-9.16Zm-5.79-2.82V301.9h5.79v9.16Zm5.79,14.81V335h-5.79v-9.15Zm0,12V347h-5.79v-9.15Zm0,12V359h-5.79v-9.15Zm0,12V371h-5.79v-9.16Zm2.29,20.82v-8.84h5.8v8.84Zm5.8-68.75V323h-5.8v-9.16Zm-5.8-2.82V301.9h5.8v9.16Zm5.8,14.81V335h-5.8v-9.15Zm0,12V347h-5.8v-9.15Zm0,12V359h-5.8v-9.15Zm0,12V371h-5.8v-9.16Zm2.29,20.82v-8.84h5.79v8.84Zm5.79-68.75V323h-5.79v-9.16Zm-5.79-2.82V301.9h5.79v9.16Zm5.79,14.81V335h-5.79v-9.15Zm0,12V347h-5.79v-9.15Zm0,12V359h-5.79v-9.15Zm0,12V371h-5.79v-9.16Zm1.8-93.44v5.25h-5.79v-9.16h5.79Zm0,6.87v9.16h-5.79v-9.16Zm-1.8,14.68v9.16h-5.79v-9.16Zm-4.79-21.55v5.25H303v-9.16h5.79Zm0,6.87v9.16H303v-9.16Zm-3.29,14.68v9.16h-5.8v-9.16Zm-3.3-21.55v5.25h-5.79v-9.16h5.79Zm0,6.87v9.16h-5.79v-9.16Zm-4.79,14.68v9.16h-5.79v-9.16Zm-1.8-21.55v5.25h-5.79v-9.16h5.79Zm0,6.87v9.16h-5.79v-9.16Zm-4,98.68v-.13h5.79v8.84h-5.79Zm-2.3-60V323h-5.79v-9.16Zm-5.79-2.82V301.9h5.79v9.16Zm5.79,14.81V335h-5.79v-9.15Zm0,12V347h-5.79v-9.15Zm0,12V359h-5.79v-9.15Zm0,12V371h-5.79v-9.16Zm0-68v5.25h-5.79v-9.16h5.79Zm-.3-25.46v5.25h-5.79v-9.16H289Zm0,6.87v9.16h-5.79v-9.16Zm-5.49,98.68v-.13h5.79v8.84h-5.79Zm40.43-83.87v-.13h5.8v9.16h-5.8Zm0,12v-.13h5.8v9.16h-5.8Zm0,12v-.13h5.8V323h-5.8Zm0,12v-.12h5.8V335h-5.8Zm0,12v-.12h5.8V347h-5.8Zm0,12v-.12h5.8V359h-5.8Zm0,12v-.12h5.8V371h-5.8Zm0,11.86h5.8v8.84h-5.8v-8.84ZM275.4,290.05v-.13h5.79v9.16H275.4Zm0,12v-.13h5.79v9.16H275.4Zm0,12v-.13h5.79V323H275.4Zm0,12v-.12h5.79V335H275.4Zm0,12v-.12h5.79V347H275.4Zm0,12v-.12h5.79V359H275.4Zm0,12v-.12h5.79V371H275.4Zm0,12v-.13h5.79v8.84H275.4Z"/><path class="cls-8" d="M201,361.33h-16.5V314.57h1.08v-1.93h-1.08v-1.48h-4.12V304H181V302.1h-.62v-.84h-3.71v-9.33h.76V290h-20.9v1.92h.76v9.33h-3.71v.84h-.62V304h.62v7.13h-4.13v1.48h-1.08v1.93h1.08v46.76H132.94v11.55h5.15V400h57.73V372.88H201ZM170.29,301v.26h-1.35V301h.14v-8.83h-.14v-.24h1.35v.24h-.13V301Zm-4,.26V301h.14v-8.83h-.14v-.24h1.35v.24h-.13V301h.13v.26Zm-2.65-9.09v-.24H165v.24h-.13V301H165v.26h-1.34V301h.13v-8.83Zm9.32,0h-.14V301H173v.26H171.6V301h.13v-8.83h-.13v-.24H173ZM161,301h.13v-8.83H161v-.24h1.35v.24h-.14V301h.14v.26H161Zm-4.54,9.26v-5.07h3.73v5.07Zm5.78,0v-5.07h3.72v5.07Zm5.77,0v-5.07h3.73v5.07Zm5.77,0v-5.07h3.73v5.07Zm-16,15.68v4.71h-3.46v-4.71Zm-3.46-4.78v-4.7h3.46v4.7Zm3.46,14.27v4.7h-3.46v-4.7Zm0,9.48v4.71h-3.46v-4.71Zm0,9.49v4.7h-3.46v-4.7Zm5.49-28.46v4.71h-3.46v-4.71Zm-3.46-4.78v-4.7h3.46v4.7Zm3.46,14.27v4.7h-3.46v-4.7Zm0,9.48v4.71h-3.46v-4.71Zm0,9.49v4.7h-3.46v-4.7Zm5.49-28.46v4.71h-3.46v-4.71Zm-3.46-4.78v-4.7h3.46v4.7Zm3.46,14.27v4.7h-3.46v-4.7Zm0,9.48v4.71h-3.46v-4.71Zm0,9.49v4.7h-3.46v-4.7Zm5.49-28.46v4.71h-3.46v-4.71Zm-3.46-4.78v-4.7h3.46v4.7Zm3.46,14.27v4.7h-3.46v-4.7Zm0,9.48v4.71h-3.46v-4.71Zm0,9.49v4.7h-3.46v-4.7Zm5.48-28.46v4.71H176.2v-4.71Zm-3.46-4.78v-4.7h3.46v4.7Zm3.46,14.27v4.7H176.2v-4.7Zm0,9.48v4.71H176.2v-4.71Zm0,9.49v4.7H176.2v-4.7Zm-35.23,37.71h-3.5V388h3.5Zm0-6.38h-3.5v-4.11h3.5Zm0-6.38h-3.5v-4.11h3.5Zm4.85,12.76h-3.5V388h3.5Zm0-6.38h-3.5v-4.11h3.5Zm0-6.38h-3.5v-4.11h3.5Zm4.86,12.76h-3.5V388h3.5Zm0-6.38h-3.5v-4.11h3.5Zm0-6.38h-3.5v-4.11h3.5ZM159,392.11h-3.5V388H159Zm0-6.38h-3.5v-4.11H159Zm0-6.38h-3.5v-4.11H159Zm4.85,12.76h-3.5V388h3.5Zm0-6.38h-3.5v-4.11h3.5Zm0-6.38h-3.5v-4.11h3.5Zm4.86,12.76h-3.5V388h3.5Zm0-6.38h-3.5v-4.11h3.5Zm0-6.38h-3.5v-4.11h3.5Zm4.85,12.76h-3.5V388h3.5Zm0-6.38h-3.5v-4.11h3.5Zm0-6.38h-3.5v-4.11h3.5Zm4.86,12.76h-3.5V388h3.5Zm0-6.38h-3.5v-4.11h3.5Zm0-6.38h-3.5v-4.11h3.5Zm4.85,12.76h-3.49V388h3.49Zm0-6.38h-3.49v-4.11h3.49Zm0-6.38h-3.49v-4.11h3.49Zm4.86,12.76h-3.5V388h3.5Zm0-6.38h-3.5v-4.11h3.5Zm0-6.38h-3.5v-4.11h3.5ZM193,392.11h-3.5V388H193Zm0-6.38h-3.5v-4.11H193Zm0-6.38h-3.5v-4.11H193Z"/><rect class="cls-8" x="223.4" y="360.69" width="8.3" height="39.31"/><rect class="cls-8" x="614.83" y="309.6" width="44.34" height="90.4" rx="3.97"/><rect class="cls-8" x="622.77" y="299.9" width="27.13" height="10.48"/><path class="cls-9" d="M249.22,355.92V344H221.67v11.92H202.55v14h2.18V400h23.55V388.68h14.33V400h23.55V369.88h2.17v-14Zm-37.85,36.79H207v-4.35h4.35Zm0-5.57H207v-4.35h4.35Zm0-5.58H207v-4.34h4.35Zm0-5.57H207v-4.35h4.35Zm6.93,16.72H214v-4.35h4.35Zm0-5.57H214v-4.35h4.35Zm0-5.58H214v-4.34h4.35Zm0-5.57H214v-4.35h4.35Zm8.11,10.6h-2.32v-3.53h2.32Zm0-4.62h-2.32v-7.34h2.32Zm0-8.7h-2.32v-7.34h2.32Zm0-8.69h-2.32v-7.34h2.32Zm0-8.7h-2.32v-7.34h2.32Zm4.07,30.71h-2.31v-3.53h2.31Zm0-4.62h-2.31v-7.34h2.31Zm0-8.7h-2.31v-7.34h2.31Zm0-8.69h-2.31v-7.34h2.31Zm0-8.7h-2.31v-7.34h2.31Zm4.08,30.71h-2.31v-3.53h2.31Zm0-4.62h-2.31v-7.34h2.31Zm0-8.7h-2.31v-7.34h2.31Zm0-8.69h-2.31v-7.34h2.31Zm0-8.7h-2.31v-7.34h2.31Zm4.08,30.71h-2.31v-3.53h2.31Zm0-4.62h-2.31v-7.34h2.31Zm0-8.7h-2.31v-7.34h2.31Zm0-8.69h-2.31v-7.34h2.31Zm0-8.7h-2.31v-7.34h2.31Zm4.07,30.71H240.4v-3.53h2.31Zm0-4.62H240.4v-7.34h2.31Zm0-8.7H240.4v-7.34h2.31Zm0-8.69H240.4v-7.34h2.31Zm0-8.7H240.4v-7.34h2.31Zm4.08,30.71h-2.31v-3.53h2.31Zm0-4.62h-2.31v-7.34h2.31Zm0-8.7h-2.31v-7.34h2.31Zm0-8.69h-2.31v-7.34h2.31Zm0-8.7h-2.31v-7.34h2.31ZM256,392.71H251.6v-4.35H256Zm0-5.57H251.6v-4.35H256Zm0-5.58H251.6v-4.34H256Zm0-5.57H251.6v-4.35H256Zm6.93,16.72h-4.35v-4.35h4.35Zm0-5.57h-4.35v-4.35h4.35Zm0-5.58h-4.35v-4.34h4.35Zm0-5.57h-4.35v-4.35h4.35Z"/><path class="cls-9" d="M437.43,356.73l-3.34-7.44H408.2l-7-6.73V332.44h1.71l-6.16-5.31-6.17,5.31h1.71v10.12l-7,6.73H359.42l-3.34,7.44h-.57v1.62h3.59v41.42h18.58V400h38.09v-.23h18.64V358.35H438v-1.62Zm-71.7,37.93h-3.65v-5h3.65Zm0-7h-3.65v-5h3.65Zm0-7h-3.65v-5h3.65Zm0-7h-3.65v-5h3.65Zm0-7h-3.65v-5h3.65Zm4.84,28h-3.64v-5h3.64Zm0-7h-3.64v-5h3.64Zm0-7h-3.64v-5h3.64Zm0-7h-3.64v-5h3.64Zm0-7h-3.64v-5h3.64Zm4.84,28h-3.64v-5h3.64Zm0-7h-3.64v-5h3.64Zm0-7h-3.64v-5h3.64Zm0-7h-3.64v-5h3.64Zm0-7h-3.64v-5h3.64Zm4.84,28h-3.64v-5h3.64Zm0-7h-3.64v-5h3.64Zm0-7h-3.64v-5h3.64Zm0-7h-3.64v-5h3.64Zm0-7h-3.64v-5h3.64Zm9.3,24.64h-3.3v-7.57h3.3Zm2-18.82h-4.37V366c0-.63,1-1.13,2.19-1.13a3.51,3.51,0,0,1,1.54.33,1,1,0,0,1,.64.8Zm0-10.22h-4.37v-6.53c0-.63,1-1.13,2.19-1.13a3.37,3.37,0,0,1,1.54.33,1,1,0,0,1,.64.8Zm5.17-17.93a2.33,2.33,0,1,1-2.33,2.33A2.33,2.33,0,0,1,396.73,344.36Zm-2.19,17.93v-6.53c0-.63,1-1.13,2.19-1.13a3.34,3.34,0,0,1,1.54.33,1,1,0,0,1,.64.8v6.53Zm4.37,3.69v6.53h-4.37V366c0-.63,1-1.13,2.19-1.13a3.48,3.48,0,0,1,1.54.33A1,1,0,0,1,398.91,366Zm1.43,21.4v9.33h-7.21v-9.33h0l.91-2.32h5.4l.91,2.32Zm1.56-31.62c0-.63,1-1.13,2.18-1.13a3.39,3.39,0,0,1,1.55.33,1,1,0,0,1,.63.8v6.53H401.9Zm0,10.22c0-.63,1-1.13,2.18-1.13a3.52,3.52,0,0,1,1.55.33,1,1,0,0,1,.63.8v6.53H401.9ZM407,391.33h-3.3v-7.57H407Zm9.47,3.33h-3.65v-5h3.65Zm0-7h-3.65v-5h3.65Zm0-7h-3.65v-5h3.65Zm0-7h-3.65v-5h3.65Zm0-7h-3.65v-5h3.65Zm4.84,28h-3.65v-5h3.65Zm0-7h-3.65v-5h3.65Zm0-7h-3.65v-5h3.65Zm0-7h-3.65v-5h3.65Zm0-7h-3.65v-5h3.65Zm4.84,28h-3.65v-5h3.65Zm0-7h-3.65v-5h3.65Zm0-7h-3.65v-5h3.65Zm0-7h-3.65v-5h3.65Zm0-7h-3.65v-5h3.65Zm4.84,28h-3.65v-5H431Zm0-7h-3.65v-5H431Zm0-7h-3.65v-5H431Zm0-7h-3.65v-5H431Zm0-7h-3.65v-5H431Z"/><path class="cls-9" d="M650.78,366.48V355.07H628.43v11.41H617.69V400h64.15V366.48ZM622.69,397h-3.16V392.7h3.16Zm0-6.05h-3.16v-4.29h3.16Zm0-6.05h-3.16V380.6h3.16Zm0-6.05h-3.16v-4.3h3.16Zm0-6.06h-3.16v-4.29h3.16ZM627,397h-3.16V392.7H627Zm0-6.05h-3.16v-4.29H627Zm0-6.05h-3.16V380.6H627Zm0-6.05h-3.16v-4.3H627Zm0-6.06h-3.16v-4.29H627Zm21,16.33H631.14v-1.68h16.93Zm0-10.2H631.14v-1.84h16.93Zm0-9.87H631.14v-2.33h16.93Zm0-10.19H631.14v-2.5h16.93ZM656.32,397h-3.16V392.7h3.16Zm0-6.05h-3.16v-4.29h3.16Zm0-6.05h-3.16V380.6h3.16Zm0-6.05h-3.16v-4.3h3.16Zm0-6.06h-3.16v-4.29h3.16ZM660.66,397h-3.15V392.7h3.15Zm0-6.05h-3.15v-4.29h3.15Zm0-6.05h-3.15V380.6h3.15Zm0-6.05h-3.15v-4.3h3.15Zm0-6.06h-3.15v-4.29h3.15ZM665.81,397h-3.16V392.7h3.16Zm0-6.05h-3.16v-4.29h3.16Zm0-6.05h-3.16V380.6h3.16Zm0-6.05h-3.16v-4.3h3.16Zm0-6.06h-3.16v-4.29h3.16ZM670.16,397H667V392.7h3.16Zm0-6.05H667v-4.29h3.16Zm0-6.05H667V380.6h3.16Zm0-6.05H667v-4.3h3.16Zm0-6.06H667v-4.29h3.16ZM675.3,397h-3.15V392.7h3.15Zm0-6.05h-3.15v-4.29h3.15Zm0-6.05h-3.15V380.6h3.15Zm0-6.05h-3.15v-4.3h3.15Zm0-6.06h-3.15v-4.29h3.15ZM679.65,397h-3.16V392.7h3.16Zm0-6.05h-3.16v-4.29h3.16Zm0-6.05h-3.16V380.6h3.16Zm0-6.05h-3.16v-4.3h3.16Zm0-6.06h-3.16v-4.29h3.16Z"/><path class="cls-9" d="M517.81,375.07h-3.06V372h2.75v-2.29h-45V372h2.75v3.09h-3.06v1.15h2.36V400h40.89V376.22h2.35ZM480.23,396.2h-3.4v-4.89h3.4Zm0-6h-3.4v-4.88h3.4Zm0-6h-3.4v-4.89h3.4Zm5.42,12.07h-3.4v-4.89h3.4Zm0-6h-3.4v-4.88h3.4Zm0-6h-3.4v-4.89h3.4Zm9.24,12.07H491.5v-4.89h3.39Zm0-6H491.5v-4.88h3.39Zm0-6H491.5v-4.89h3.39Zm4.89,12.07h-3.39v-4.89h3.39Zm0-6h-3.39v-4.88h3.39Zm0-6h-3.39v-4.89h3.39Zm4.89,12.07h-3.39v-4.89h3.39Zm0-6h-3.39v-4.88h3.39Zm0-6h-3.39v-4.89h3.39Zm4.89,12.07h-3.39v-4.89h3.39Zm0-6h-3.39v-4.88h3.39Zm0-6h-3.39v-4.89h3.39Zm4.89,12.07h-3.4v-4.89h3.4Zm0-6h-3.4v-4.88h3.4Zm0-6h-3.4v-4.89h3.4Z"/></svg>