<svg id="Ñëîé_1" data-name="Ñëîé 1" xmlns="http://www.w3.org/2000/svg" viewBox="0 0 3100.09 2091.52"><defs><style>.cls-1{fill:#ccebf9;}.cls-2{fill:#ecf6fb;}.cls-3{fill:#d3ebf8;}.cls-4{fill:#acdbf5;}.cls-5{fill:#8acaf0;}.cls-6{fill:#71baed;}.cls-7{fill:#61a9e9;}</style></defs><title>42_Q2l0eSAxNQ [Converted]</title><rect class="cls-1" width="3100.09" height="2091.52"/><polygon class="cls-2" points="0 1469.87 20.52 1469.87 20.52 1440.35 45.12 1415.74 69.72 1415.74 69.72 1259.92 127.14 1259.92 127.14 1291.08 171.42 1291.08 171.42 1235.31 184.54 1235.31 184.54 1161.5 214.07 1161.5 214.07 1027 228.01 1013.06 296.08 1013.06 296.08 969.59 340.37 825.25 371.53 971.23 383.01 971.23 383.01 1041.76 396.14 1041.76 396.14 1095.89 437.14 1095.89 437.14 971.23 462.57 945.81 462.57 751.44 538.84 725.19 538.84 639.9 579.85 662.86 579.85 380.74 596.25 397.14 596.25 671.07 629.05 689.11 629.05 817.05 691.38 817.05 691.38 999.12 721.73 1029.46 721.73 1369.82 730.75 1369.82 730.75 1469.87 755.35 1469.87 755.35 1125.42 817.68 1125.42 817.68 974.51 827.52 974.51 827.52 879.38 845.57 861.34 1035.84 861.34 1035.84 969.59 1058.8 969.59 1058.8 925.3 1094.89 925.3 1094.89 836.73 1191.66 836.73 1191.66 866.26 1231.03 866.26 1231.03 671.07 1248.25 653.84 1262.19 653.84 1262.19 766.2 1278.6 766.2 1278.6 710.43 1302.38 686.65 1349.13 686.65 1349.13 400.42 1357.33 400.42 1357.33 689.11 1440.98 689.11 1440.98 726.83 1459.03 726.83 1459.03 764.56 1475.43 764.56 1475.43 828.53 1513.15 828.53 1513.15 882.66 1532.02 901.52 1532.02 1056.53 1542.68 1056.53 1542.68 981.07 1583.68 981.07 1583.68 1056.53 1606.65 1056.53 1606.65 899.06 1623.05 882.66 1623.05 780.96 1636.99 767.02 1636.99 705.51 1652.58 705.51 1652.58 626.78 1736.23 626.78 1736.23 746.52 1778.88 789.16 1778.88 823.61 1789.54 834.27 1789.54 1133.62 1805.12 1133.62 1805.12 797.37 1831.36 771.12 1831.36 662.86 1844.49 662.86 1844.49 613.66 1951.1 613.66 1951.1 661.22 1960.94 671.07 1960.94 890.86 1978.17 908.08 1978.17 1033.56 1992.11 1033.56 1992.11 1002.4 2031.48 1002.4 2031.48 1053.24 2072.48 1053.24 2072.48 1087.69 2115.13 1130.34 2115.13 1314.05 2128.25 1314.05 2128.25 1281.24 2154.49 1281.24 2154.49 1261.56 2168.44 1247.62 2168.44 1215.63 2192.22 1215.63 2192.22 1300.92 2203.7 1300.92 2203.7 1161.5 2230.77 1134.44 2339.84 1134.44 2339.84 1284.52 2339.84 1333.73 2359.53 1333.73 2359.53 1381.3 2369.37 1391.14 2393.97 1391.14 2393.97 1286.16 2412.84 1267.3 2412.84 1201.79 2479.27 1201.79 2506.69 1229.21 2525.19 1229.21 2525.19 818.69 2537.5 806.39 2537.5 713.71 2552.67 698.54 2552.67 648.1 2568.46 632.31 2590.8 484.07 2621.97 484.07 2636.73 630.06 2647.39 640.72 2647.39 700.59 2660.93 714.12 2660.93 812.13 2669.33 820.53 2669.33 1240.23 2685.02 1255.92 2685.02 1504.32 2694.14 1504.32 2694.14 1212.35 2712.18 1194.31 2712.18 1141.82 2759.75 1141.82 2759.75 1176.27 2788.45 1204.97 2788.45 1230.39 2810.6 1230.39 2810.6 1056.53 2849.97 1017.16 2959.86 1017.16 2979.55 1036.84 2979.55 1473.15 2996.77 1490.37 3007.43 1490.37 3007.43 1138.54 3032.85 1113.12 3056.64 1113.12 3078.37 1091.38 3100.09 1091.38 3100.09 2091.52 0 2091.52 0 1469.87"/><polygon class="cls-3" points="0 2091.52 0 1518.52 27.19 1491.33 85.7 1491.33 85.7 1461.66 94.77 1461.66 94.77 1425.4 171.4 1425.4 171.4 1463.31 184.18 1476.08 184.18 1579.5 209.31 1579.5 231.15 1557.66 276.06 1557.66 289.86 1543.86 289.86 1213.62 326.32 1213.62 346.51 1193.43 346.51 1124.62 408.73 1124.62 450.35 1166.24 450.35 1232.58 480.42 1232.58 480.42 1586.09 495.26 1586.09 495.26 1553.13 506.79 1541.6 539.75 1541.6 539.75 1262.24 572.3 1229.69 698.8 1229.69 698.8 1538.3 724.34 1538.3 724.34 1514.4 758.13 1514.4 775.43 1497.1 775.43 1171.6 838.06 1171.6 838.06 1119.68 861.55 1096.19 883.39 1096.19 914.08 1065.5 946.84 1065.5 946.84 996.07 979.39 963.52 1018.53 963.52 1018.53 1135.34 1056.44 1135.34 1068.39 1147.29 1068.39 1286.96 1077.04 1286.96 1077.04 1344.65 1090.22 1357.83 1090.22 1385.64 1121.54 1385.64 1121.54 1312.51 1133.07 1300.97 1133.07 1100.73 1156.15 1077.65 1156.15 910.37 1227.84 910.37 1227.84 1446.01 1240.2 1446.01 1240.2 1098.25 1250.5 1087.95 1250.5 1002.66 1269.87 1002.66 1269.87 838.68 1316.01 823.85 1409.96 823.85 1409.96 852.69 1435.5 852.69 1435.5 1012.55 1454.04 1031.09 1454.04 1343.82 1464.34 1343.82 1486.18 1321.98 1486.18 1117.21 1630.8 1117.21 1644.4 1130.81 1644.4 1446.83 1654.7 1446.83 1677.36 1424.17 1677.36 1181.48 1701.88 1156.97 1762.65 1156.97 1762.65 1522.64 1792.32 1522.64 1804.68 1510.28 1804.68 1191.37 1848.35 1147.7 1895.32 1147.7 1895.32 1105.67 1910.16 1090.84 1910.16 1062 1967.84 1062 1967.84 1625.65 1977.73 1625.65 1977.73 1460.84 2011.93 1426.64 2011.93 1378.43 2167.26 1378.43 2167.26 1595.16 2191.16 1595.16 2191.16 1513.58 2212.17 1492.56 2240.6 1492.56 2240.6 1369.37 2257.08 1352.89 2314.77 1352.89 2314.77 1670.15 2322.59 1677.98 2340.31 1677.98 2340.31 1557.25 2357.62 1539.95 2400.47 1539.95 2400.47 1741.02 2421.07 1741.02 2433.43 1728.66 2433.43 1441.06 2451.56 1422.93 2477.11 1422.93 2477.11 1315.81 2493.59 1299.32 2557.04 1299.32 2557.04 1258.12 2634.5 1258.12 2653.86 1277.49 2653.86 1581.97 2676.32 1604.43 2709.49 1604.43 2721.13 1592.79 2721.13 1534.18 2766.35 1534.18 2766.35 1382.55 2779.95 1368.96 2779.95 1310.04 2800.96 1310.04 2800.96 1357.01 2868.12 1424.17 2868.12 1531.71 2886.66 1531.71 2902.32 1516.05 2968.24 1516.05 3020.16 1567.96 3020.16 1722.06 3030.87 1722.06 3044.47 1708.47 3044.47 1633.89 3100.09 1633.89 3100.09 2091.52 0 2091.52"/><polygon class="cls-4" points="0 1481.72 47.85 1481.72 47.85 1469.6 82.97 1469.6 82.97 1481.72 105.38 1481.72 105.38 1295.17 116.59 1283.97 116.59 1258.23 139.76 1235.06 152.02 1089.24 166.56 1234.61 189.57 1257.62 189.57 1285.48 199.56 1295.47 199.56 1516.84 204.11 1516.84 204.11 1387.23 210.77 1387.23 210.77 1382.39 232.57 1382.39 232.57 1359.98 268.91 1359.98 268.91 1381.17 310.1 1381.17 310.1 1494.43 337.96 1494.43 354.01 1510.48 375.51 1510.48 412.46 1510.48 412.46 1408.43 437.89 1382.99 451.82 1382.99 451.82 1409.04 477.87 1409.04 477.87 1392.08 486.04 1383.9 504.52 1383.9 504.52 1370.23 612.33 1370.23 612.33 1477.48 631.1 1477.48 631.1 1406.61 701.36 1406.61 728.01 1433.26 728.01 1700.97 755.26 1700.97 755.26 1256.41 1049.61 1256.41 1075.05 1281.85 1075.05 1610.12 1084.74 1610.12 1084.74 1362.4 1101.1 1174.64 1113.21 1174.64 1135.01 1362.4 1135.01 1607.09 1149.55 1607.09 1149.55 1559.24 1163.18 1545.61 1195.58 1545.61 1195.58 1467.18 1208.9 1467.18 1208.9 1359.37 1241.91 1326.36 1250.09 1326.36 1250.09 1644.03 1256.15 1644.03 1256.15 1314.55 1296.72 1314.55 1296.72 1297.59 1361.53 1297.59 1374.25 1310.31 1374.25 1335.75 1408.77 1335.75 1408.77 1419.94 1439.66 1419.94 1439.66 1690.67 1448.14 1690.67 1448.14 1534.41 1475.7 1506.85 1475.7 1453.25 1500.83 1453.25 1510.83 1463.24 1510.83 1483.53 1517.19 1483.53 1517.19 1469 1548.68 1437.5 1559.58 1437.5 1559.58 1481.72 1588.05 1481.72 1588.05 1502.31 1603.8 1502.31 1603.8 1475.66 1624.99 1475.66 1624.99 1501.7 1635.29 1501.7 1635.29 1370.23 1641.35 1370.23 1641.35 1346.65 1658.61 1329.39 1704.34 1329.39 1704.34 1370.23 1717.06 1370.23 1717.06 1316.97 1749.16 1316.97 1749.16 1298.81 1759.15 1288.81 1773.99 1288.81 1773.99 1316.37 1793.37 1316.37 1793.37 1355.74 1803.36 1345.74 1866.05 1345.74 1866.05 1533.2 1879.98 1533.2 1879.98 1300.02 1890.58 1289.42 1959.93 1289.42 1959.93 1626.47 1972.04 1626.47 1972.04 1033.52 2098.02 1033.52 2098.02 1441.14 2111.34 1441.14 2148.89 1311.52 2191.29 1311.52 2191.29 1439.32 2208.25 1439.32 2208.25 1425.99 2251.86 1425.99 2251.86 1417.52 2352.4 1370.23 2432.34 1370.23 2432.34 1408.43 2442.64 1408.43 2442.64 1659.78 2452.94 1659.78 2452.94 1592.55 2465.05 1592.55 2465.05 1553.79 2502.91 1515.94 2526.22 1515.94 2526.22 1571.35 2536.52 1571.35 2536.52 1422.36 2554.39 1404.49 2554.39 1350.89 2616.47 1350.89 2625.55 1341.81 2689.15 1341.81 2689.15 1559.24 2705.5 1559.24 2705.5 1652.51 2718.22 1665.23 2735.78 1665.23 2735.78 1323.03 2755.47 1303.35 2755.47 1261.25 2837.69 1179.04 2837.69 1410.85 2850.93 1424.1 2850.93 1502.31 2860.89 1512.26 2875.09 1512.26 2875.09 1484.14 2922.93 1484.14 2956.55 1450.52 3011.36 1450.52 3011.36 1475.05 3021.66 1475.05 3031.65 1485.05 3031.65 1621.62 3041.04 1621.62 3041.04 1604.06 3051.03 1594.07 3068.29 1594.07 3068.29 1422.36 3077.98 1422.36 3077.98 1400.56 3100.09 1378.45 3100.09 2091.52 0 2091.52 0 1481.72"/><path class="cls-5" d="M0,1585.19H30.65L44,1598.5H66.15L79.66,1612h18v44.16h33.88v-25.81l27.43-27.43V1494h16.13v-22.59h23.39v21h13.72v-21h24.2l19-19V1347.21H296V1466.6h43.57v55.67h32.27v107.28H388v-150L398.5,1469h33.88v187.15h9.68V1598.9h26.62v13.71H494.5V1492.42L509,1477.9v-50.82h88.73v19.36H626v20.16h46.79L690.12,1484h23v164.16h75.84v-30.66l91.15-91.15H1038.2v46l21.78,21.78h40.34v18.55h33.88l52.43-52.43h53.23v29h42.77l23.8-23.8h64.13v-190l14.11-14.12h23v175.46l19,19V1636h80.29c4,0,37.91-37.92,37.91-37.92h86.32l16.94-16.94h35.49v43.56h24.2v-58.08l25.41-25.41V1390.78l39.73-39.73H1811v27.63h20.16v181.5l12.51,12.5h65.74v52.84h8.07V1561l11.7-11.7v-15.73h21.37v28.23h17.75v10.49h16.13v73.41h13.72l31.86-31.87v-15.73h46.39v38.72h41.94v-83.89l12.51-12.5V1466.6l19.16-19.15h77.24v208.72h10.48v-82.28l31.87-31.86h11.7v114.14h11.29l50.82-50.82h103.26v45.18h35.49V1632l22.18-22.18V1590h39.13v-17.75h37.11l34.28-34.28h28.64v134.31h15.32V1615H2763.7l27.43-27.42h27.43v-12.1h39.52V1466.6h66.15v228.3H2938v-78.25l25.81-25.82h41.95V1565H3067v38.72l33.07,33.07v454.71H0Z"/><path class="cls-6" d="M3079.58,1763.29v-24h-38v16h-26l-16,16v48.53H2991v-141.6h-41v67.55h-24.52v7.5h-17l-17,17h-65v35.52h-9.5v-83.31h-17.77l-21.26,21.27h-23v11h-24.26V1767l-13.76,13.76v11.51h-22v-28h-64l-31.52,31.52h-7V1725H2585l-19.77,19.77v51h-6.5V1666.35h-47.91l-11.88,11.88V1724l-7.76,7.76v52h-26v-24h-28.77v9.75l-19.76,19.77h-8.51v-45.53h-10v-6.51h-11v-17.51h-13.25v9.76l-7.25,7.25v40h-5V1744H2320.8l-7.75-7.76V1623.69h-12.51v-17.13H2276.9l-24.64,24.64v93.31l-15.76,15.76v36h-15v-27h-22L2189,1759.79h-53.53s-21,23.51-23.52,23.51h-49.8v-49.78l-11.76-11.76V1612.94h-14.24l-8.76,8.75v117.83h-39.78l-14.76,14.76h-26.52v-18h-33l-32.52,32.53h-21v-11.51h-25l-13.51-13.51v-28.52h-98.07l-56.54,56.54v19h-47V1689h-14.25l-10.76-10.76h-29v-12.51H1548v-12h-55v31.52l-.87.87v-4.86h-10.56l-8.45,12.33-9,.21-13.52-116.45h-7.51l-10.15,116.45v112.12h-6V1643.83l-15.77-15.78H1228.54V1894.6h-1.86l-8.39-8.38h-6.65V1737.74l-16.53-16.53h-43.58v44h-11.64v-66.52H1073v8.48h-11.46l-5.07,5.07v10.52h-16.15v-16.16h-8.64l-15.78,15.78v63.3H979.67l-9.2-9.2v-88.09H909.38l-3.94,3.94h-1.09v1.09l-11.76,11.76v1h-1.77v3h-7v-56.91l-6.19-6.2V1628.8l-14.28-14.27-9-90.16-7.6,90.44-14.37,14.37v16l-6.95,6.95v21.52l-14.26-14.26V1638H785.77v-31.54H761.35v19.33h-8.64V1548L742,1537.27V1400.94l-6.1-6.1v-29.51H669.79v30.53h-8.14V1463l-16.28,16.28v208.56h-9.66v-94.53l-6.61-6.61v-21.36l-26.46-26.46v-74.26H550.76v48.83l-9.67,38.15-8.64,8.65v63.08l-10.18,10.17V1640H508v-46.79H482.59V1640H476v-96.14l-11.7-11.7v-33.57h-23.4v-39.68H430.71v-23.4H419.52v-18.47H327.1l-8.3,8.3V1460H308.63v-69.69H300l-10.69,10.68V1522H264.88V1503.7h-60v54.94H182.47v27.46H168.23V1519h-118L39,1530.15v59h-6.1v93.59H0v408.77H3100.09V1783.81Z"/><path class="cls-7" d="M3100.08,2091.52V1882h-47.55v60.69l-17.64,17.64V2005h-41.4V1896s-92.67-10.66-92.67,0v78.73l-275.58-15.6v10.66H2468.6l-13.52-13.52H2270.13v-8.62H2158.59v14h-51.67l-9.43,9.43v30.76h-107v-19.69l-105-12.31h-96v93.51H1664.88v-73.81h-29.53v-18.88h16.4V1748.33h-24.59v-28.71l19.67-19.67v-14h-42.64v-22.14H1468.86v39.37H1305.65L1281.88,1727v18h-40.19v212.42l-24.2,24.18v63.57h-33.22V1996h-38.54v76.27h-11.49V1784.43h-62.33l-16.79,16.81H794.69v-32.39H747.13v17.22h-7.37L718.86,1807v84.87H693V1645H606.9l-21.31,21.32v155H543.75L508.5,1856.6l-86.95-4.92v-75.47H210.78l-31.16,31.18H0v284.13Z"/></svg>