<svg xmlns="http://www.w3.org/2000/svg" viewBox="0 0 2302.4 1005.26"><defs><style>.cls-1{fill:#fff;}.cls-2,.cls-3{fill:#fff4e6;}.cls-3{fill-rule:evenodd;}.cls-4{fill:#ffaf50;}.cls-5{fill:#fce1ca;}.cls-6{fill:#f9953f;}.cls-7{fill:#401737;}.cls-8{fill:#e2803d;}.cls-9{fill:#f2e7e5;}</style></defs><g id="background2"><rect class="cls-1" width="2302.4" height="1005.26"/></g><g id="background"><polygon class="cls-2" points="961.74 460.23 961.74 380.37 827.85 380.37 827.85 530.73 728.2 530.73 728.2 470.73 533.9 470.73 533.9 819.88 1004.79 819.88 1004.79 460.23 961.74 460.23"/><polygon class="cls-2" points="1546.04 504.73 1546.04 393.73 1433.55 393.73 1433.55 515.23 1373.55 515.23 1373.55 506.23 1373.55 506.23 1373.55 457.83 1251.41 457.83 1251.41 819.83 1650.56 819.83 1650.56 504.73 1546.04 504.73"/><path class="cls-3" d="M1107.87,214.68c-8.57-8.56-23.11-13-37.82-13.22v0h-1.67v0c-14.72.26-29.26,4.66-37.83,13.22-8.27,8.27-12.72,20.64-10.55,34.31,1.52,9.56,7.18,20.53,14,31.3l28.91,43.34-4.19,22.51.12-.05c.54.06,20.16.06,20.7,0l.12.05-4.19-22.51,28.91-43.34c6.84-10.77,12.51-21.74,14-31.3C1120.59,235.32,1116.14,223,1107.87,214.68Zm-38.66,118h-5.56l1.41-7.14a143.55,143.55,0,0,0,8.3,0l1.41,7.14Zm4.34-9.21-.28-1.42h0v0h0a.52.52,0,0,0-.48-.46h-1.16v-1.84a.31.31,0,0,0-.3-.3h-4.22a.31.31,0,0,0-.3.3v1.84h-1.16a.52.52,0,0,0-.48.46h0v0h0l-.28,1.42-6.21-8.74h21.1Z" transform="translate(0)"/><path class="cls-4" d="M1789,408.08H1608.88v-1.75a34.48,34.48,0,0,1,54.78-27.92,39.48,39.48,0,0,1,67.19,4.6,34.48,34.48,0,0,1,59.92,23.27V408Zm-176.6-3.5h174.81a31,31,0,0,0-55.41-17.3l-1.8,2.33-1.18-2.7a36,36,0,0,0-63.3-5l-1.06,1.65-1.52-1.25a31,31,0,0,0-50.54,22.3Z" transform="translate(0)"/><rect class="cls-1" x="1627.37" y="633.19" width="22.25" height="33.81"/><polygon class="cls-5" points="1623.54 585.84 1623.54 664.33 1630.4 664.33 1630.21 578.27 1623.54 585.84"/><polygon class="cls-5" points="1601.19 611.8 1601.19 664.33 1594.34 664.33 1594.34 620.4 1601.19 611.8"/><polygon class="cls-5" points="1615.79 593.47 1615.79 664.33 1608.94 664.33 1608.94 602.07 1615.79 593.47"/><polygon class="cls-5" points="1586.58 630.13 1586.58 664.33 1579.73 664.33 1579.73 638.73 1586.58 630.13"/><polygon class="cls-5" points="1638.15 574.36 1638.15 664.33 1645 664.33 1645.11 566.05 1638.15 574.36"/><rect class="cls-5" x="1667.35" y="585.84" width="6.85" height="78.49"/><rect class="cls-5" x="1681.96" y="585.84" width="6.85" height="78.49"/><rect class="cls-5" x="1652.76" y="585.84" width="6.85" height="78.49"/><rect class="cls-5" x="1696.56" y="585.84" width="6.85" height="78.49"/><rect class="cls-5" x="1710.91" y="585.84" width="6.85" height="78.49"/><rect class="cls-5" x="1725.24" y="585.84" width="6.85" height="78.48"/><rect class="cls-5" x="1739.58" y="585.84" width="6.85" height="78.48"/><polygon class="cls-5" points="1641.15 642.4 1580.34 703.21 1580.34 712.9 1650.84 642.4 1641.15 642.4"/><polygon class="cls-5" points="1661.8 642.4 1580.34 723.86 1580.34 733.55 1671.49 642.4 1661.8 642.4"/><polygon class="cls-5" points="1599.84 642.4 1580.34 661.9 1580.34 671.6 1609.54 642.4 1599.84 642.4"/><polygon class="cls-5" points="1620.5 642.4 1580.34 682.55 1580.34 692.25 1630.19 642.4 1620.5 642.4"/><polygon class="cls-5" points="1682.45 642.4 1580.34 744.51 1580.34 754.2 1692.14 642.4 1682.45 642.4"/><polygon class="cls-5" points="1594.64 822.51 1708.67 708.48 1708.67 698.79 1584.95 822.51 1594.64 822.51"/><polygon class="cls-5" points="1580.34 806.47 1580.34 816.16 1708.67 687.83 1708.67 678.13 1580.34 806.47"/><polygon class="cls-5" points="1703.1 642.4 1580.34 765.16 1580.34 774.85 1708.67 646.52 1708.67 642.4 1703.1 642.4"/><polygon class="cls-5" points="1580.34 785.82 1580.34 795.51 1708.67 667.17 1708.67 657.48 1580.34 785.82"/><polygon class="cls-5" points="1615.29 822.51 1708.67 729.13 1708.67 719.44 1605.6 822.51 1615.29 822.51"/><polygon class="cls-5" points="1635.94 822.51 1708.67 749.78 1708.67 740.09 1626.25 822.51 1635.94 822.51"/><polygon class="cls-5" points="1697.9 822.51 1708.67 811.74 1708.67 802.05 1688.21 822.51 1697.9 822.51"/><polygon class="cls-5" points="1677.24 822.51 1708.67 791.09 1708.67 781.39 1667.55 822.51 1677.24 822.51"/><polygon class="cls-5" points="1656.59 822.51 1708.67 770.43 1708.67 760.74 1646.9 822.51 1656.59 822.51"/><polygon class="cls-2" points="2014.02 589.72 2014.02 438.76 1882.03 438.76 1882.03 490.73 1798.57 490.73 1798.57 820.83 2066.52 820.83 2066.52 589.72 2014.02 589.72"/><rect class="cls-2" x="824.16" y="380.37" width="142.25" height="13.36"/><rect class="cls-2" x="654.08" y="446.18" width="37.04" height="37.04"/><rect class="cls-2" x="646.97" y="438.18" width="49.86" height="12"/><rect class="cls-2" x="1871.47" y="438.76" width="142.55" height="12.98"/><rect class="cls-2" x="1792.83" y="489.56" width="97.82" height="13.07"/><rect class="cls-2" x="2009.63" y="590.16" width="62.53" height="10.04"/><rect class="cls-1" x="1461.98" y="438.76" width="12.97" height="25.94"/><rect class="cls-1" x="1489.17" y="438.76" width="12.97" height="25.94"/><rect class="cls-1" x="1460.72" y="534.88" width="12.97" height="25.94"/><rect class="cls-1" x="1489.17" y="534.88" width="12.97" height="25.94"/><rect class="cls-1" x="1489.17" y="571.5" width="12.97" height="25.94"/><rect class="cls-1" x="1517.61" y="534.88" width="12.97" height="25.94"/><rect class="cls-1" x="1517.61" y="572.84" width="12.97" height="25.94"/><rect class="cls-1" x="1546.06" y="534.88" width="12.97" height="25.94"/><rect class="cls-1" x="857.24" y="424.85" width="11.58" height="123"/><rect class="cls-1" x="881.5" y="424.85" width="11.58" height="123"/><rect class="cls-1" x="905.75" y="424.85" width="11.58" height="123"/><rect class="cls-1" x="930" y="424.85" width="11.58" height="123"/><polygon class="cls-5" points="985.9 559.48 985.9 648 979.1 648 979.1 568.03 985.9 559.48"/><polygon class="cls-5" points="956.92 595.87 956.92 648 950.12 648 950.12 604.4 956.92 595.87"/><polygon class="cls-5" points="971.41 577.67 971.41 648 964.61 648 964.61 586.21 971.41 577.67"/><polygon class="cls-5" points="942.42 614.06 942.42 648 935.62 648 935.62 622.59 942.42 614.06"/><polygon class="cls-5" points="1000.39 541.29 1000.39 648 993.6 648 993.6 549.82 1000.39 541.29"/><rect class="cls-5" x="1022.59" y="580.31" width="6.8" height="67.69"/><rect class="cls-5" x="1037.08" y="580.31" width="6.8" height="67.69"/><rect class="cls-5" x="1008.1" y="580.31" width="6.8" height="67.69"/><rect class="cls-5" x="1051.57" y="580.31" width="6.8" height="67.69"/><rect class="cls-5" x="1065.81" y="580.31" width="6.8" height="67.69"/><rect class="cls-5" x="1080.04" y="580.31" width="6.8" height="67.68"/><rect class="cls-5" x="1094.27" y="580.31" width="6.8" height="67.68"/><polygon class="cls-5" points="995.83 643.74 935.48 704.1 935.48 713.72 1005.45 643.74 995.83 643.74"/><polygon class="cls-5" points="1016.33 643.74 935.48 724.59 935.48 734.21 1025.95 643.74 1016.33 643.74"/><polygon class="cls-5" points="954.84 643.74 935.48 663.1 935.48 672.72 964.46 643.74 954.84 643.74"/><polygon class="cls-5" points="975.34 643.74 935.48 683.6 935.48 693.22 984.96 643.74 975.34 643.74"/><polygon class="cls-5" points="1036.83 643.74 935.48 745.09 935.48 754.71 1046.45 643.74 1036.83 643.74"/><polygon class="cls-5" points="949.67 822.51 1062.85 709.33 1062.85 699.71 940.05 822.51 949.67 822.51"/><polygon class="cls-5" points="935.48 806.59 935.48 816.21 1062.85 688.83 1062.85 679.21 935.48 806.59"/><polygon class="cls-5" points="1057.33 643.74 935.48 765.59 935.48 775.21 1062.85 647.83 1062.85 643.74 1057.33 643.74"/><polygon class="cls-5" points="935.48 786.09 935.48 795.71 1062.85 668.33 1062.85 658.71 935.48 786.09"/><polygon class="cls-5" points="970.17 822.51 1062.85 729.83 1062.85 720.21 960.55 822.51 970.17 822.51"/><polygon class="cls-5" points="990.67 822.51 1062.85 750.32 1062.85 740.71 981.05 822.51 990.67 822.51"/><polygon class="cls-5" points="1052.16 822.51 1062.85 811.82 1062.85 802.2 1042.54 822.51 1052.16 822.51"/><polygon class="cls-5" points="1031.66 822.51 1062.85 791.32 1062.85 781.7 1022.04 822.51 1031.66 822.51"/><polygon class="cls-5" points="1011.17 822.51 1062.85 770.82 1062.85 761.2 1001.55 822.51 1011.17 822.51"/><polygon class="cls-5" points="876.85 701.22 816.49 761.58 816.49 771.2 886.47 701.22 876.85 701.22"/><polygon class="cls-5" points="897.35 701.22 816.49 782.07 816.49 791.69 906.97 701.22 897.35 701.22"/><polygon class="cls-5" points="835.86 701.22 816.49 720.58 816.49 730.2 845.48 701.22 835.86 701.22"/><polygon class="cls-5" points="856.35 701.22 816.49 741.08 816.49 750.7 865.97 701.22 856.35 701.22"/><polygon class="cls-5" points="917.85 701.22 816.49 802.57 816.49 812.19 927.47 701.22 917.85 701.22"/><polygon class="cls-5" points="890.27 820.41 943.87 766.81 943.87 757.19 880.65 820.41 890.27 820.41"/><polygon class="cls-5" points="869.77 820.41 943.87 746.31 943.87 736.69 860.15 820.41 869.77 820.41"/><polygon class="cls-5" points="828.77 820.41 943.87 705.31 943.87 701.22 938.35 701.22 819.15 820.41 828.77 820.41"/><polygon class="cls-5" points="849.27 820.41 943.87 725.81 943.87 716.19 839.65 820.41 849.27 820.41"/><polygon class="cls-5" points="910.76 820.41 943.87 787.31 943.87 777.69 901.14 820.41 910.76 820.41"/><polygon class="cls-5" points="931.26 820.41 943.87 807.8 943.87 798.19 921.64 820.41 931.26 820.41"/><polygon class="cls-5" points="533.11 566.28 582.87 516.51 573.16 516.51 533.11 556.57 533.11 566.28"/><polygon class="cls-5" points="533.11 586.97 603.57 516.51 593.86 516.51 533.11 577.26 533.11 586.97"/><polygon class="cls-5" points="533.11 516.51 533.11 524.89 541.48 516.51 533.11 516.51"/><polygon class="cls-5" points="533.11 545.58 562.18 516.51 552.47 516.51 533.11 535.87 533.11 545.58"/><polygon class="cls-5" points="533.11 607.67 624.26 516.51 614.55 516.51 533.11 597.96 533.11 607.67"/><polygon class="cls-5" points="586.71 636.86 640.83 582.74 640.83 573.02 576.99 636.86 586.71 636.86"/><polygon class="cls-5" points="566.01 636.86 640.83 562.04 640.83 552.33 556.3 636.86 566.01 636.86"/><polygon class="cls-5" points="517.52 634.24 514.9 636.86 524.62 636.86 527.24 634.24 517.52 634.24"/><polygon class="cls-5" points="635.25 516.51 533.11 618.65 533.11 628.37 640.83 520.65 640.83 516.51 635.25 516.51"/><polygon class="cls-5" points="545.31 636.86 640.83 541.35 640.83 531.63 535.6 636.86 545.31 636.86"/><polygon class="cls-5" points="607.4 636.86 640.83 603.43 640.83 593.72 597.69 636.86 607.4 636.86"/><polygon class="cls-5" points="628.1 636.86 640.83 624.13 640.83 614.42 618.38 636.86 628.1 636.86"/><polygon class="cls-5" points="1521.3 700.29 1460.49 761.1 1460.49 770.79 1531 700.29 1521.3 700.29"/><polygon class="cls-5" points="1541.96 700.29 1460.49 781.75 1460.49 791.44 1551.65 700.29 1541.96 700.29"/><polygon class="cls-5" points="1480 700.29 1460.49 719.8 1460.49 729.49 1489.69 700.29 1480 700.29"/><polygon class="cls-5" points="1500.65 700.29 1460.49 740.45 1460.49 750.14 1510.34 700.29 1500.65 700.29"/><polygon class="cls-5" points="1562.61 700.29 1460.49 802.4 1460.49 812.09 1572.3 700.29 1562.61 700.29"/><polygon class="cls-5" points="1534.82 820.38 1588.83 766.37 1588.83 756.68 1525.13 820.38 1534.82 820.38"/><polygon class="cls-5" points="1514.17 820.38 1588.83 745.72 1588.83 736.03 1504.48 820.38 1514.17 820.38"/><polygon class="cls-5" points="1472.86 820.38 1588.83 704.41 1588.83 700.29 1583.26 700.29 1463.17 820.38 1472.86 820.38"/><polygon class="cls-5" points="1493.52 820.38 1588.83 725.07 1588.83 715.38 1483.82 820.38 1493.52 820.38"/><polygon class="cls-5" points="1555.47 820.38 1588.83 787.02 1588.83 777.33 1545.78 820.38 1555.47 820.38"/><polygon class="cls-5" points="1576.12 820.38 1588.83 807.67 1588.83 797.98 1566.43 820.38 1576.12 820.38"/><path class="cls-4" d="M753.8,401.17H522.73l-.27-1.43a31.66,31.66,0,0,1-.51-5.62,31.22,31.22,0,0,1,31.18-31.18c.84,0,1.69,0,2.56.11A39.4,39.4,0,0,1,631.8,357a34.51,34.51,0,0,1,36.06,15.87A27.53,27.53,0,0,1,679,370.44a27.14,27.14,0,0,1,18.12,6.85,31.18,31.18,0,0,1,57.43,16.83,30.77,30.77,0,0,1-.52,5.62Zm-228.12-3.5H750.85a28.45,28.45,0,0,0,.23-3.55,27.68,27.68,0,0,0-52-13.21l-1.14,2.1-1.66-1.72a23.9,23.9,0,0,0-28.3-4.64l-1.52.8-.83-1.51A31,31,0,0,0,631,360.7l-1.62.4-.47-1.6a35.9,35.9,0,0,0-70,5.69l-.23,1.76-1.75-.24a27.63,27.63,0,0,0-31.48,27.41A28.45,28.45,0,0,0,525.68,397.67Z" transform="translate(0)"/><path class="cls-4" d="M1301.79,411.24H1144.64v-1.75a46.29,46.29,0,0,1,81.06-30.63,53.09,53.09,0,0,1,91.15-6.48,46.29,46.29,0,0,1,74.07,37v.11l-3.5,0v-.11a42.79,42.79,0,0,0-69.87-33.1l-1.52,1.24-1.06-1.65a49.59,49.59,0,0,0-87.25,6.93l-1.18,2.7-1.81-2.32a42.78,42.78,0,0,0-76.55,24.56h153.61Z" transform="translate(0)"/><rect class="cls-4" x="1314.44" y="407.74" width="18.05" height="3.5"/><path class="cls-4" d="M716.82,289l-1.55-2.87-.23-.46a16.54,16.54,0,0,0-10.41-8.89l1.07-3.33a20.11,20.11,0,0,1,11.09,8.22,20.56,20.56,0,0,1,11.15-8.22l1.06,3.33a16.89,16.89,0,0,0-9.29,6.83Z" transform="translate(0)"/><path class="cls-4" d="M1743,292.29l-1.54-2.87q-.1-.18-.24-.45a16.42,16.42,0,0,0-10.4-8.89l1.06-3.34A20.11,20.11,0,0,1,1743,285a20.36,20.36,0,0,1,11.15-8.22l1.06,3.34a17,17,0,0,0-9.29,6.82Z" transform="translate(0)"/><path class="cls-4" d="M360.09,453l-1.55-2.87-.23-.45a16.51,16.51,0,0,0-10.41-8.89l1.07-3.34a20.15,20.15,0,0,1,11.09,8.22,20.32,20.32,0,0,1,11.14-8.22l1.07,3.34a16.63,16.63,0,0,0-9.3,6.83Z" transform="translate(0)"/><path class="cls-4" d="M1792.83,265l-1.55-2.87-.23-.45a16.45,16.45,0,0,0-10.4-8.89l1.06-3.34a20.11,20.11,0,0,1,11.09,8.22,20.36,20.36,0,0,1,11.15-8.22l1.06,3.34a16.9,16.9,0,0,0-9.29,6.82Z" transform="translate(0)"/><path class="cls-4" d="M1422.26,301.94l-1.54-2.87c-.07-.12-.14-.27-.23-.45a16.51,16.51,0,0,0-10.41-8.89l1.06-3.34a20.19,20.19,0,0,1,11.1,8.22,20.44,20.44,0,0,1,11.14-8.22l1.06,3.34a16.89,16.89,0,0,0-9.29,6.83Z" transform="translate(0)"/><path class="cls-4" d="M666,268.45l-1.54-2.88c-.07-.12-.14-.27-.23-.45a16.54,16.54,0,0,0-10.41-8.89l1.06-3.33a20.09,20.09,0,0,1,11.1,8.22,20.52,20.52,0,0,1,11.14-8.22l1.06,3.33a16.94,16.94,0,0,0-9.29,6.83Z" transform="translate(0)"/><path class="cls-4" d="M945.94,289.86H862.48v-1.75a20.4,20.4,0,0,1,32.58-16.38,28.08,28.08,0,0,1,50.88,16.38Zm-79.87-3.5h76.31a24.57,24.57,0,0,0-45.44-11.13l-1.11,1.8-1.56-1.42a16.89,16.89,0,0,0-28.2,10.75Z" transform="translate(0)"/><path class="cls-4" d="M499.53,307.14H416.07v-1.75A20.4,20.4,0,0,1,448.66,289a28.06,28.06,0,0,1,50.87,16.38Zm-79.87-3.5H496a24.57,24.57,0,0,0-45.44-11.13l-1.11,1.79-1.56-1.42a16.9,16.9,0,0,0-28.2,10.76Z" transform="translate(0)"/><rect class="cls-2" x="1847.7" y="422.18" width="13.27" height="3.5"/><rect class="cls-2" x="1733.13" y="422.18" width="100.84" height="3.5"/><rect class="cls-2" x="1800.87" y="402.88" width="101.78" height="3.5"/><rect class="cls-2" x="800.88" y="299.34" width="11.14" height="3.5"/><rect class="cls-2" x="823.55" y="299.34" width="84.65" height="3.5"/><rect class="cls-2" x="362.01" y="322.64" width="84.65" height="3.5"/><rect class="cls-2" x="596.82" y="417.42" width="14.04" height="3.5"/><rect class="cls-2" x="475.52" y="417.42" width="106.75" height="3.5"/><rect class="cls-2" x="765.89" y="283.14" width="85.44" height="3.5"/><rect class="cls-2" x="1570.73" y="290.47" width="88.43" height="3.5"/><rect class="cls-4" x="1090.92" y="407.74" width="88.43" height="3.5"/><path class="cls-4" d="M1394.8,226.76H1293.48V225a33.94,33.94,0,0,1,61.75-19.48A24.57,24.57,0,0,1,1394.8,225Zm-97.77-3.5h94.19A21.07,21.07,0,0,0,1356,209.42l-1.56,1.42-1.11-1.79A30.44,30.44,0,0,0,1297,223.26Z" transform="translate(0)"/><path class="cls-4" d="M1582.58,284.48H1529v-1.75a26.81,26.81,0,0,1,53.62,0Zm-50-3.5H1579a23.31,23.31,0,0,0-46.49,0Z" transform="translate(0)"/><path class="cls-4" d="M1225.36,365A39.67,39.67,0,1,1,1282,347.55l-3.19-1.45A36.15,36.15,0,1,0,1227.17,362Z" transform="translate(0)"/></g><g id="color"><polygon class="cls-1" points="793.23 668.88 772.56 668.88 767.08 640.34 800.57 640.34 793.23 668.88"/><path class="cls-4" d="M258.17,597.34c-3.7-16.67-21.59-41.81-54.4-50.08-1.37-.37-2.77-.68-4.18-1l-.2,0a56,56,0,0,0-10.1-.93c-28.92,0-52.56,22-52.71,49l0,6.13-4.09,4.8a54.7,54.7,0,0,0-12.78,27.6,56.25,56.25,0,0,0,19.62,34.43c12.07,15.43,31.57,25.47,53.57,25.47,22.72,0,42.77-5.13,54.72-21.42,1.43.13,2.89.2,4.36.2,22.28,0,40.82-19.26,44.83-40C293.14,613.73,277.6,599.84,258.17,597.34Z" transform="translate(0)"/><path class="cls-6" d="M297.58,639.63c0,23.57-20.43,48.23-45.64,48.23-1.47,0-2.93-.07-4.36-.2-12,16.29-32,21.42-54.72,21.42-22,0-41.5-10-53.57-25.47-12.43-10.5-20.24-25.68-20.24-42.54a53.88,53.88,0,0,1,.62-8.16,56.25,56.25,0,0,0,19.62,34.43c12.07,15.43,31.57,25.47,53.57,25.47,22.72,0,42.77-5.13,54.72-21.42,1.43.13,2.89.2,4.36.2,22.28,0,40.82-19.26,44.83-40A40.23,40.23,0,0,1,297.58,639.63Z" transform="translate(0)"/><path class="cls-4" d="M1483.07,672.16A26.7,26.7,0,0,0,1465.36,647,44.55,44.55,0,0,0,1447,598.72a26.41,26.41,0,0,0,1.19-7.9,26.73,26.73,0,1,0-52,8.77,44.54,44.54,0,0,0-16.9,48.14,26.7,26.7,0,0,0-5.86,47.53,26.7,26.7,0,0,0,34,36.51,41,41,0,0,0,66-39.17A26.64,26.64,0,0,0,1483.07,672.16Z" transform="translate(0)"/><path class="cls-4" d="M2021.38,659.32a7.46,7.46,0,0,0-8.93,5.62l14.54,3.31A7.46,7.46,0,0,0,2021.38,659.32Z" transform="translate(0)"/><path class="cls-6" d="M2029.86,704.33a9.9,9.9,0,0,0,1.76,13.89l12.13-15.66A9.89,9.89,0,0,0,2029.86,704.33Z" transform="translate(0)"/><path class="cls-4" d="M1459.34,760.45a9.91,9.91,0,0,0-12.82,5.65l18.47,7.17A9.91,9.91,0,0,0,1459.34,760.45Z" transform="translate(0)"/><path class="cls-6" d="M156.72,744.94a12.2,12.2,0,0,0-1.08-17.23L139.49,746A12.2,12.2,0,0,0,156.72,744.94Z" transform="translate(0)"/><path class="cls-6" d="M163.47,778.54a8.13,8.13,0,0,0-11.26,2.37l13.63,8.9A8.14,8.14,0,0,0,163.47,778.54Z" transform="translate(0)"/><rect class="cls-7" x="1080.82" y="562.08" width="7.7" height="3.5" transform="translate(-7.82 1112.36) rotate(-54.13)"/><rect class="cls-7" x="1168.68" y="562.08" width="7.7" height="3.5" transform="translate(28.56 1183.56) rotate(-54.13)"/><polygon class="cls-1" points="1211.3 645.41 1210.92 787.9 952.72 787.9 952.72 645.41 1211.3 645.41"/><polygon class="cls-1" points="1299.97 545.68 1215.89 645.41 1211.3 645.41 1211.27 787.91 1378.06 787.91 1378.1 645.36 1299.97 545.68"/><polygon class="cls-1" points="1037.75 533.36 1027.98 533.36 936.33 639.33 942.42 645.41 1215.89 645.41 1299.97 545.68 1378.1 645.36 1388.33 645.4 1300.15 533.35 1199.53 533.35 1037.75 533.36"/><rect class="cls-1" x="952.72" y="787.9" width="258.3" height="19.54"/><rect class="cls-1" x="1210.92" y="787.9" width="168.01" height="19.54"/><rect class="cls-1" x="1151.29" y="807.44" width="245.39" height="13.9"/><rect class="cls-1" x="934.3" y="807.44" width="303.73" height="13.9"/><ellipse class="cls-4" cx="1298.96" cy="621.44" rx="15.48" ry="17.99"/><path class="cls-1" d="M1292.79,636.81l21.88-21.89c-.25-.35-.51-.69-.79-1a20,20,0,0,1-2.42-2.47L1288.91,634C1290.14,635,1291.27,636.28,1292.79,636.81Z" transform="translate(0)"/><path class="cls-1" d="M1316.4,625.57a18,18,0,0,1,0-4.81l-18.56,18.56h6.71l11.78-11.78A16.15,16.15,0,0,1,1316.4,625.57Z" transform="translate(0)"/><path class="cls-8" d="M1302.71,603.44a19.64,19.64,0,0,0-2,.45,18.17,18.17,0,0,1,0,35.09,19.64,19.64,0,0,0,2,.45,18.2,18.2,0,0,0,0-36Z" transform="translate(0)"/><rect class="cls-4" x="965.91" y="686.46" width="168.05" height="76.34"/><rect class="cls-6" x="1260.64" y="727.25" width="43.61" height="60.71"/><polygon class="cls-4" points="1293.4 706.87 1251.41 706.87 1286.11 664.4 1326.4 664.4 1293.4 706.87"/><rect class="cls-6" x="1038.65" y="561.78" width="31.19" height="32.15"/><rect class="cls-6" x="1126.51" y="561.78" width="31.19" height="32.15"/><polygon class="cls-6" points="1210.45 808.14 1038.65 808.14 1054.25 787.96 1210.45 787.96 1210.45 808.14"/><polygon class="cls-8" points="1238.03 821.16 1238.03 807.24 1015.86 807.24 1008.2 821.16 1238.03 821.16"/><rect class="cls-8" x="1200.36" y="645.41" width="9.99" height="142.48"/><rect class="cls-8" x="952.14" y="646.48" width="265.71" height="6.09"/><polygon class="cls-8" points="1210.88 652.55 1221.17 652.55 1299.75 559.91 1367.98 646.46 1377.7 646.46 1299.43 547.85 1215.49 646.51 1210.91 646.51 1210.88 652.55"/><polygon class="cls-6" points="1210.22 639.32 936.33 639.33 1027.42 533.36 1299.59 533.35 1210.22 639.32"/><polygon class="cls-1" points="1082.41 566.95 1054.66 535.73 1029.93 563.37 1029.93 603.26 1082.18 603.26 1113.95 566.9 1082.41 566.95"/><polygon class="cls-1" points="1118.16 541.85 1098.38 518.71 1050.29 518.7 1013.13 561.48 1018.6 566.9 1029.72 566.9 1029.72 563.37 1054.45 535.73 1082.2 566.95 1117.58 566.95 1118.16 541.85"/><path class="cls-1" d="M1222.22,560.81l-36-42.1h-48.09L1101,561.48l5.47,5.42h11.12v-3.53l24.73-27.64L1170.06,567h46.24Z" transform="translate(0)"/><polygon class="cls-1" points="1170.28 566.95 1142.52 535.73 1117.79 563.37 1117.79 603.26 1170.04 603.26 1201.81 566.9 1170.28 566.95"/><polygon class="cls-8" points="1112.49 566.9 1082.41 602.04 1082.41 566.95 1087.99 566.95 1112.49 566.9"/><rect class="cls-4" x="1038.65" y="561.78" width="30.67" height="30.67"/><rect class="cls-4" x="1126.77" y="561.78" width="30.67" height="30.67"/><polygon class="cls-8" points="1200.36 566.9 1170.28 602.04 1170.28 566.95 1175.86 566.95 1200.36 566.9"/><rect class="cls-8" x="1038.65" y="562.34" width="5.1" height="31.58"/><rect class="cls-8" x="1038.65" y="561.78" width="31.19" height="3.97"/><rect class="cls-8" x="1126.51" y="562.34" width="5.1" height="31.58"/><rect class="cls-8" x="1126.51" y="561.78" width="31.19" height="3.97"/><polygon class="cls-4" points="1118.16 541.85 1102.37 560.71 1086.93 560.71 1050.5 518.7 1098.38 518.71 1118.16 541.85"/><polygon class="cls-4" points="1222.43 561.78 1173.86 560.71 1137.43 518.7 1185.31 518.71 1222.43 561.78"/><polygon class="cls-6" points="1089.67 686.63 1012.55 763.75 1021 763.75 1098.13 686.63 1089.67 686.63"/><polygon class="cls-6" points="1053.65 686.63 976.52 763.75 984.98 763.75 1062.1 686.63 1053.65 686.63"/><polygon class="cls-6" points="1035.64 686.63 965.48 756.78 965.48 763.75 966.96 763.75 1044.09 686.63 1035.64 686.63"/><polygon class="cls-6" points="1071.66 686.63 994.54 763.75 1002.99 763.75 1080.12 686.63 1071.66 686.63"/><polygon class="cls-6" points="981.6 686.63 965.48 702.74 965.48 711.19 990.05 686.63 981.6 686.63"/><polygon class="cls-6" points="1017.62 686.63 965.48 738.76 965.48 747.22 1026.08 686.63 1017.62 686.63"/><polygon class="cls-6" points="999.61 686.63 965.48 720.75 965.48 729.21 1008.07 686.63 999.61 686.63"/><polygon class="cls-6" points="965.48 686.63 965.48 693.18 972.04 686.63 965.48 686.63"/><polygon class="cls-6" points="1106.27 686.63 1029.15 763.75 1037.6 763.75 1114.73 686.63 1106.27 686.63"/><polygon class="cls-6" points="1133.8 731.14 1101.19 763.75 1109.65 763.75 1133.8 739.6 1133.8 731.14"/><polygon class="cls-6" points="1133.8 749.16 1119.2 763.75 1127.66 763.75 1133.8 757.61 1133.8 749.16"/><polygon class="cls-6" points="1133.8 695.12 1065.17 763.75 1073.62 763.75 1133.8 703.57 1133.8 695.12"/><polygon class="cls-6" points="1133.8 713.13 1083.18 763.75 1091.63 763.75 1133.8 721.59 1133.8 713.13"/><polygon class="cls-6" points="1124.28 686.63 1047.16 763.75 1055.61 763.75 1132.74 686.63 1124.28 686.63"/><rect class="cls-8" x="1260.64" y="787.96" width="17.9" height="17.9"/><rect class="cls-8" x="1273.68" y="798.56" width="13.07" height="8.67"/><rect class="cls-8" x="1082.41" y="566.95" width="35.38" height="37.72"/><rect class="cls-9" x="1172.41" y="724.83" width="13.49" height="9.97"/><rect class="cls-9" x="1150.85" y="732.84" width="19.95" height="9.97"/><rect class="cls-9" x="1357.58" y="736.84" width="19.95" height="9.97"/><rect class="cls-8" x="965.91" y="686.46" width="168.05" height="6.56"/><rect class="cls-8" x="967.36" y="687.15" width="6.01" height="74.97"/><rect class="cls-1" x="1584.44" y="809.18" width="172.96" height="12.16"/><rect class="cls-1" x="1741.91" y="809.18" width="172.96" height="12.16"/><polygon class="cls-1" points="1576.5 664.28 1745.2 661.09 1830.02 562.95 1664.51 562.97 1576.5 664.28"/><polygon class="cls-1" points="1830.02 562.95 1745.2 661.09 1576.5 664.28 1584.45 669.33 1750.03 669.33 1830.02 577.27 1904.91 669.28 1910.93 669.28 1917.43 669.28 1830.02 562.95"/><polygon class="cls-1" points="1750.03 669.33 1749.98 808.93 1595.14 808.93 1595.14 669.33 1750.03 669.33"/><path class="cls-4" d="M1653.15,712.54H1631s-5.77,0-5.77,0-.19,0-.19,0v-.19h-6.13v52.57h34.27V718.38h.08V712.6h-.08Z" transform="translate(0)"/><path class="cls-4" d="M1715.53,712.6h-.06v-.06h-22.2s-5.78,0-5.78,0-.16,0-.16,0v-.19h-6.13v52.57h34.27V718.38h.06Z" transform="translate(0)"/><polygon class="cls-1" points="1830.02 577.27 1750.03 669.33 1749.99 808.93 1904.88 808.94 1904.91 669.28 1830.02 577.27"/><polygon class="cls-8" points="1830.02 577.27 1751.05 669.3 1595.05 669.3 1595.05 675.85 1756.42 675.83 1830.32 588.72 1898.84 675.38 1904.91 675.38 1904 668.9 1830.02 577.27"/><polygon class="cls-6" points="1835.13 730.87 1806.83 730.87 1806.67 808.99 1834.96 808.99 1835.13 730.87"/><path class="cls-4" d="M1841.93,641.85h-6.13V642h-.19s-5.78,0-5.78,0-21,0-21,0v.06h-.08v5.78h.08V676h33.12Z" transform="translate(0)"/><rect class="cls-1" x="1696.16" y="544.5" width="22.03" height="69.89"/><polygon class="cls-1" points="1736.97 590.55 1736.97 544.71 1717.22 544.5 1717.22 614.39 1717.72 614.39 1736.97 590.55"/><polygon class="cls-6" points="1619.26 738.45 1644.26 713.44 1637.04 713.44 1619.26 731.22 1619.26 738.45"/><polygon class="cls-6" points="1619.26 723.05 1628.87 713.44 1621.65 713.44 1619.26 715.83 1619.26 723.05"/><polygon class="cls-6" points="1652.43 713.44 1619.26 746.61 1619.26 753.83 1653.05 720.04 1653.05 713.44 1652.43 713.44"/><polygon class="cls-6" points="1619.26 762 1619.26 765.07 1623.41 765.07 1653.05 735.43 1653.05 728.21 1619.26 762"/><polygon class="cls-6" points="1653.05 758.99 1646.96 765.07 1653.05 765.07 1653.05 758.99"/><polygon class="cls-6" points="1653.05 743.6 1631.57 765.07 1638.8 765.07 1653.05 750.82 1653.05 743.6"/><polygon class="cls-6" points="1681.47 738.45 1706.47 713.44 1699.25 713.44 1681.47 731.22 1681.47 738.45"/><polygon class="cls-6" points="1681.47 723.05 1691.08 713.44 1683.86 713.44 1681.47 715.83 1681.47 723.05"/><polygon class="cls-6" points="1714.64 713.44 1681.47 746.61 1681.47 753.83 1715.26 720.04 1715.26 713.44 1714.64 713.44"/><polygon class="cls-6" points="1681.47 762 1681.47 765.07 1685.62 765.07 1715.26 735.43 1715.26 728.21 1681.47 762"/><polygon class="cls-6" points="1715.26 758.99 1709.17 765.07 1715.26 765.07 1715.26 758.99"/><polygon class="cls-6" points="1715.26 743.6 1693.79 765.07 1701.01 765.07 1715.26 750.82 1715.26 743.6"/><polygon class="cls-1" points="1813.57 675.38 1820.6 675.38 1840.31 655.67 1840.31 648.64 1813.57 675.38"/><rect class="cls-8" x="1808.22" y="642.04" width="4.25" height="33.98"/><rect class="cls-8" x="1808.22" y="642.04" width="33.08" height="3.77"/><rect class="cls-6" x="1808.16" y="722.42" width="33.13" height="8.45"/><rect class="cls-6" x="1835.06" y="722.42" width="7.17" height="86.51"/><polygon class="cls-8" points="1648.69 821.05 1757.4 821.05 1757.4 809.18 1658.68 809.18 1648.69 821.05"/><rect class="cls-8" x="1727.09" y="669.28" width="15.22" height="147.43"/><rect class="cls-9" x="1870.03" y="765.67" width="20.62" height="8.99"/><rect class="cls-9" x="1612.8" y="770.17" width="12.16" height="8.99"/><rect class="cls-9" x="1763.58" y="704.86" width="12.16" height="8.99"/><rect class="cls-9" x="1768.08" y="692.96" width="17.98" height="8.99"/><rect class="cls-9" x="1882.19" y="777.83" width="20.62" height="8.99"/><polygon class="cls-4" points="1746.49 660.55 1577.78 660.55 1664.82 563.5 1828.73 563.5 1746.49 660.55"/><polygon class="cls-1" points="1719.52 544.52 1736.97 544.52 1736.97 590.45 1717.96 612.98 1719.52 544.52"/><rect class="cls-1" x="1695.93" y="545.43" width="22.26" height="68.96"/><rect class="cls-8" x="1696.3" y="545.91" width="19.74" height="68.48"/><rect class="cls-8" x="1618.88" y="712.35" width="6.01" height="52.44"/><rect class="cls-8" x="1618.88" y="712.54" width="34.23" height="6.17"/><rect class="cls-8" x="1681.25" y="712.35" width="6.01" height="52.44"/><rect class="cls-8" x="1681.25" y="712.54" width="34.23" height="6.17"/><rect class="cls-8" x="1809.27" y="723.18" width="5.37" height="83.56"/><rect class="cls-8" x="1809.27" y="723.44" width="30.67" height="6.4"/><path class="cls-4" d="M1992.35,649.73A30.66,30.66,0,0,0,1972,620.89a51.2,51.2,0,0,0-21-55.42,30.67,30.67,0,1,0-60-9.06,30.45,30.45,0,0,0,1.73,10.06,50.91,50.91,0,0,0-19.86,53.34,47.5,47.5,0,0,1,7.2,8.32h.26v.36l2.17,3c1.63,2.24,3.23,4.52,4.84,6.78,4.76,1.82,8,6.65,10.44,11.08a32.31,32.31,0,0,1,4.8,4.17,3.35,3.35,0,0,1,.49.81c2.86,1.22,5.35,4,7,6.26.77,1.1,4.8,8.17.88,8.17A8.81,8.81,0,0,1,1906,667a17,17,0,0,1-3,5.76l0,0a27.16,27.16,0,0,1-1.17,5.1v41.45a29.83,29.83,0,0,0,3.85-1.25,47.09,47.09,0,0,0,76.45-36.84,48.12,48.12,0,0,0-.71-8.1A30.56,30.56,0,0,0,1992.35,649.73Z" transform="translate(0)"/><polygon class="cls-1" points="654.22 635.33 654.22 661.02 589.6 661.02 589.57 788.92 240.05 788.92 240.05 635.33 654.22 635.33"/><polygon class="cls-1" points="632 552.15 553.89 645.88 539.98 645.88 539.98 787.07 714.58 787.07 714.62 645.83 632 552.15"/><polygon class="cls-1" points="632.68 534.84 314.23 534.85 219.84 635.87 219.68 635.92 230.65 645.88 553.89 645.88 632 552.15 714.62 644.94 731.9 644.94 632.68 534.84"/><polygon class="cls-8" points="533.11 652.8 560.24 652.8 632.85 565.04 705.7 649.34 715.34 649.34 632.53 553.09 554.61 646.82 533.14 646.82 533.11 652.8"/><rect class="cls-1" x="489.34" y="806.42" width="243.15" height="13.5"/><rect class="cls-1" x="223" y="806.42" width="353.23" height="13.5"/><rect class="cls-1" x="366.55" y="516.87" width="23" height="90.76"/><polygon class="cls-1" points="409.58 580.84 409.58 516.86 388.29 516.65 388.29 607.63 388.82 607.63 409.58 580.84"/><rect class="cls-1" x="240.85" y="787.06" width="308.22" height="20.12"/><rect class="cls-1" x="548.97" y="787.06" width="170.63" height="20.12"/><ellipse class="cls-4" cx="635.15" cy="634.52" rx="17.09" ry="19.86"/><rect class="cls-1" x="390.21" y="508.23" width="21.96" height="8.39"/><rect class="cls-1" x="362.45" y="508.23" width="26.9" height="8.39"/><rect class="cls-4" x="280.76" y="688.59" width="58.18" height="60.48"/><rect class="cls-4" x="453.75" y="688.59" width="58.18" height="60.48"/><polygon class="cls-4" points="549.07 634.52 219.68 634.52 314.72 534.85 631.91 534.84 549.07 634.52"/><rect class="cls-8" x="367.53" y="516.87" width="20.57" height="90.16"/><polygon class="cls-1" points="388.1 607.03 409.58 580.84 409.24 517.04 388.29 517.04 388.1 607.03"/><rect class="cls-8" x="365.62" y="517.04" width="44.43" height="4.25"/><path class="cls-1" d="M626.19,649.57l28-28q-.5-.67-1-1.32a25.51,25.51,0,0,1-3.1-3.16L621.21,646C622.79,647.29,624.25,648.9,626.19,649.57Z" transform="translate(0)"/><path class="cls-1" d="M656.42,635.18a24,24,0,0,1,0-6.16L632.69,652.8h8.6l15.09-15.09A19.37,19.37,0,0,1,656.42,635.18Z" transform="translate(0)"/><path class="cls-8" d="M639.29,614.67a18.92,18.92,0,0,0-2.26.49,20.06,20.06,0,0,1,0,38.72,18.94,18.94,0,0,0,2.26.5,20.08,20.08,0,0,0,0-39.71Z" transform="translate(0)"/><rect class="cls-4" x="597.02" y="687.25" width="53.38" height="99.73"/><rect class="cls-8" x="597.32" y="700.45" width="39.7" height="86.61"/><rect class="cls-8" x="597.32" y="700.45" width="40.39" height="5.02"/><rect class="cls-8" x="631.36" y="700.45" width="5.18" height="86.53"/><rect class="cls-8" x="599.23" y="687.25" width="51.17" height="4.76"/><rect class="cls-8" x="645.94" y="687.25" width="4.46" height="99.1"/><polygon class="cls-6" points="309.94 692.01 285.29 716.89 285.29 725.08 318.06 692.01 309.94 692.01"/><polygon class="cls-6" points="292.64 692.01 285.29 699.43 285.29 707.62 300.76 692.01 292.64 692.01"/><polygon class="cls-6" points="327.24 692.01 285.29 734.35 285.29 742.54 335.36 692.01 327.24 692.01"/><polygon class="cls-6" points="339.03 697.57 288.57 748.49 296.69 748.49 339.03 705.76 339.03 697.57"/><polygon class="cls-6" points="339.03 732.48 323.17 748.49 331.29 748.49 339.03 740.68 339.03 732.48"/><polygon class="cls-6" points="339.03 715.03 305.87 748.49 313.99 748.49 339.03 723.22 339.03 715.03"/><polygon class="cls-6" points="482.45 692.01 457.8 716.89 457.8 725.08 490.57 692.01 482.45 692.01"/><polygon class="cls-6" points="465.15 692.01 457.8 699.43 457.8 707.62 473.27 692.01 465.15 692.01"/><polygon class="cls-6" points="499.75 692.01 457.8 734.35 457.8 742.54 507.87 692.01 499.75 692.01"/><polygon class="cls-6" points="511.55 697.57 461.08 748.49 469.2 748.49 511.55 705.76 511.55 697.57"/><polygon class="cls-6" points="511.55 732.48 495.69 748.49 503.8 748.49 511.55 740.68 511.55 732.48"/><polygon class="cls-6" points="511.55 715.03 478.38 748.49 486.5 748.49 511.55 723.22 511.55 715.03"/><polygon class="cls-8" points="574.15 819.93 375.77 819.93 385.2 806.42 574.15 806.42 574.15 819.93"/><polygon class="cls-6" points="547.97 787.37 431.32 787.37 409.58 809.97 547.97 807.58 547.97 787.37"/><rect class="cls-8" x="597.02" y="787.36" width="8.58" height="19.81"/><rect class="cls-8" x="603.78" y="798.09" width="10.4" height="9.08"/><polygon class="cls-8" points="652.24 691.63 639.09 704.77 631.81 704.77 597.32 740.97 597.35 692.36 652.24 691.63"/><rect class="cls-8" x="528.69" y="645.88" width="11.29" height="141.18"/><rect class="cls-4" x="605.6" y="787.36" width="76.56" height="10.04"/><rect class="cls-4" x="614.85" y="796.75" width="76.56" height="8.99"/><rect class="cls-9" x="569.5" y="718.53" width="14.89" height="11.01"/><rect class="cls-9" x="398.94" y="537.01" width="11.56" height="8.33"/><rect class="cls-9" x="388.84" y="567.58" width="11.56" height="8.33"/><rect class="cls-9" x="360.08" y="751.06" width="14.89" height="11.01"/><rect class="cls-9" x="699.73" y="667.36" width="14.89" height="11.01"/><rect class="cls-9" x="383.29" y="649.12" width="14.89" height="11.01"/><rect class="cls-9" x="575.01" y="703.96" width="22.02" height="11.01"/><rect class="cls-9" x="342.34" y="763.25" width="22.02" height="11.01"/><rect class="cls-8" x="240.85" y="645.88" width="299.13" height="6.91"/><rect class="cls-8" x="279.76" y="688.59" width="7.96" height="60.48"/><rect class="cls-8" x="281.69" y="689.55" width="58.18" height="6.84"/><rect class="cls-4" x="368.34" y="688.59" width="58.18" height="60.48"/><polygon class="cls-6" points="397.51 692.01 372.86 716.89 372.86 725.08 405.63 692.01 397.51 692.01"/><polygon class="cls-6" points="380.21 692.01 372.86 699.43 372.86 707.62 388.33 692.01 380.21 692.01"/><polygon class="cls-6" points="414.81 692.01 372.86 734.35 372.86 742.54 422.93 692.01 414.81 692.01"/><polygon class="cls-6" points="426.6 697.57 376.14 748.49 384.26 748.49 426.6 705.76 426.6 697.57"/><polygon class="cls-6" points="426.6 732.48 410.74 748.49 418.86 748.49 426.6 740.68 426.6 732.48"/><polygon class="cls-6" points="426.6 715.03 393.44 748.49 401.56 748.49 426.6 723.22 426.6 715.03"/><rect class="cls-8" x="367.33" y="688.59" width="7.96" height="60.48"/><rect class="cls-8" x="369.26" y="689.55" width="58.18" height="6.84"/><rect class="cls-8" x="451.92" y="688.59" width="7.96" height="60.48"/><rect class="cls-8" x="452.88" y="689.55" width="58.18" height="6.84"/><rect class="cls-8" x="2004.15" y="803.79" width="23.36" height="9.68"/><rect class="cls-1" x="1948.4" y="796.82" width="130.53" height="6.69"/><path class="cls-4" d="M2004,813.76h24.1a6,6,0,0,1,6,6v1.59a0,0,0,0,1,0,0H1998a0,0,0,0,1,0,0v-1.59A6,6,0,0,1,2004,813.76Z"/><circle class="cls-4" cx="2014.72" cy="738.49" r="5.09"/><path class="cls-6" d="M787.56,626.57l-1.64-6.4h-6l-1.63,6.27A14.55,14.55,0,0,0,768,640.34h29.43A14.52,14.52,0,0,0,787.56,626.57Z" transform="translate(0)"/><rect class="cls-4" x="788.12" y="640" width="7.38" height="29.22" transform="translate(136 -136.21) rotate(10.75)"/><rect class="cls-6" x="765.83" y="812.47" width="34.74" height="8.87"/><path class="cls-6" d="M2130.43,626.57l-1.63-6.4h-6l-1.64,6.27a14.55,14.55,0,0,0-10.26,13.9h29.43A14.53,14.53,0,0,0,2130.43,626.57Z" transform="translate(0)"/><rect class="cls-4" x="2131" y="640" width="7.38" height="29.22" transform="translate(159.57 -386.7) rotate(10.75)"/><rect class="cls-6" x="2108.7" y="812.47" width="34.74" height="8.87"/><polygon class="cls-1" points="796.77 812.47 771.08 811.29 773.45 793.35 791.5 793.35 796.77 812.47"/><polygon class="cls-1" points="789.28 793.35 777.78 793.35 780.13 778.53 786.71 778.53 789.28 793.35"/><path class="cls-4" d="M1527.07,773.25h15.42s-1.66,5.27-5.74,7.93-14.61,7.45-14.61,7.45l-.16,19.43h-2.76l-3-22.53Z" transform="translate(0)"/><path class="cls-1" d="M1537.76,753.58c-2.32-1.84-11.35-10.32-14.07-12.88a10.67,10.67,0,0,0,.61-3.58c0-4.91-3.2-8.89-7.14-8.89s-7.13,4-7.13,8.89,3.19,8.9,7.13,8.9a5.69,5.69,0,0,0,1.18-.13l3.83,12.72-10.39,7.63,1.62,2.19,10.9-3.17,2.19,8h19S1540.5,755.76,1537.76,753.58Z" transform="translate(0)"/><path class="cls-1" d="M833,767.19s-.66-13.85.23-17.87,5.66-20,5.66-20a8.92,8.92,0,0,1-1-1.75c-1.57-3.72-.53-7.7,2.33-8.91s6.43.84,8,4.56.52,7.71-2.33,8.91a4.18,4.18,0,0,1-1.07.3l1.72,7.76,4.34,7.76-1.73,4.83.55,10.1.72,3.75Z" transform="translate(0)"/><polygon class="cls-4" points="850.41 766.68 832.96 767.19 829.92 784.3 852.96 784.02 850.41 766.68"/><path class="cls-6" d="M848.51,720.08s-1.12-4.37-4.17-4.52-6.35.07-8.17,1.89-4.34,18.61-4.34,18.61,7.16,6.12,8.17,6.12,0-20.32,0-20.32Z" transform="translate(0)"/><path class="cls-4" d="M884.32,754.51h0V781H863.45v5.75a6.13,6.13,0,0,0,6.13,6.15h34a6.14,6.14,0,0,0,6.13-6.15V781h1.06A26.47,26.47,0,0,0,884.32,754.51Z" transform="translate(0)"/><polygon class="cls-1" points="850.3 782.64 850.4 819.07 846.64 819.07 841.99 786.85 825.59 817.81 822.64 814.65 834.73 783.61 850.3 782.64"/></g><g id="line"><path class="cls-7" d="M1433.11,742.47a42.34,42.34,0,0,1-25.87-8.71,28.4,28.4,0,0,1-29.58-6.29l2.43-2.51a24.94,24.94,0,0,0,26.79,5.19l.95-.38.8.63a38.83,38.83,0,0,0,24.48,8.57,39.36,39.36,0,0,0,39.31-39.31,39,39,0,0,0-.6-6.76l-.17-1,.77-.65a24.94,24.94,0,0,0-7.65-42.58l-1.5-.55.4-1.54a42.82,42.82,0,0,0-17.62-46.41l-1.08-.73.38-1.24a25,25,0,1,0-47.43.81l.43,1.23-1.06.76a42.85,42.85,0,0,0-17.55,29.93l-3.48-.4a46.33,46.33,0,0,1,18-31.6,28.22,28.22,0,0,1-1.2-8.12,28.48,28.48,0,1,1,56,7.18,46.26,46.26,0,0,1,18.37,48,28.44,28.44,0,0,1,8,47.33,42.74,42.74,0,0,1-42.32,49.19Z" transform="translate(0)"/><rect class="cls-7" x="1422.67" y="661.77" width="3.5" height="159.91"/><rect class="cls-7" x="1421.35" y="682.5" width="26.89" height="3.5" transform="translate(-63.58 1215) rotate(-45)"/><path class="cls-7" d="M1935,730.14a48.28,48.28,0,0,1-29.63-10q-1,.38-2.07.69l-1-3.36c.91-.27,1.82-.59,2.7-1l1-.38.8.64a44.91,44.91,0,0,0,28.25,9.88,45.28,45.28,0,0,0,44.67-53.16l-.17-1,.77-.64a28.88,28.88,0,0,0-8.85-49.31l-1.51-.54.4-1.55A49.4,49.4,0,0,0,1950,566.93l-1.08-.73.38-1.24a28.93,28.93,0,1,0-54.91.94l.43,1.23-1.06.76A49.52,49.52,0,0,0,1873.22,608a48.06,48.06,0,0,0,.46,6.68l-3.47.48a52.1,52.1,0,0,1-.49-7.16,53.06,53.06,0,0,1,21-42.15,32.4,32.4,0,1,1,63.41-9.4,32.57,32.57,0,0,1-1.08,8.34,52.92,52.92,0,0,1,21.07,55.07,32.36,32.36,0,0,1,9.21,54A48.78,48.78,0,0,1,1935,730.14Z" transform="translate(0)"/><path class="cls-7" d="M1743.27,810.68H1591.7V667.58h151.59Zm-148.07-3.5h144.57l0-136.1H1595.2Z" transform="translate(0)"/><path class="cls-7" d="M1654.1,766.68h-37.74V710.79h37.74Zm-34.24-3.5h30.74V714.29h-30.74Z" transform="translate(0)"/><path class="cls-7" d="M1716.41,766.68h-37.73V710.79h37.73Zm-34.23-3.5h30.73V714.29h-30.73Z" transform="translate(0)"/><path class="cls-7" d="M1904.94,810.69H1739.77l0-143.1h8.67l80.84-93,1.31,1.63L1905,668.66Zm-161.67-3.51h158.17l0-137.29L1829.2,580l-79.14,91.08h-6.77Z" transform="translate(0)"/><path class="cls-7" d="M1718,616.14h-24.62V543.67l44.31.24v47.58Zm-21.12-3.5h19.44l17.87-22.38V547.39l-37.31-.2Z" transform="translate(0)"/><polygon class="cls-7" points="1920.46 671.14 1902.37 670.63 1829.2 580 1750.06 671.08 1583.17 671.08 1573.08 664.66 1662.94 561.22 1695.16 561.21 1695.16 564.71 1664.54 564.72 1578.38 663.89 1584.19 667.58 1748.46 667.58 1829.3 574.55 1904.08 667.18 1912.87 667.42 1828.42 564.7 1736.2 564.71 1736.2 561.21 1830.08 561.2 1830.6 561.84 1920.46 671.14"/><path class="cls-7" d="M1851.73,810.74h-54.64l.31-99.18H1852Zm-51.13-3.5h47.64l.28-92.18h-47.64Z" transform="translate(0)"/><path class="cls-7" d="M1843,810.93h-37.57l.21-90.26h37.56Zm-34.06-3.5h30.57l.19-83.26h-30.57Z" transform="translate(0)"/><path class="cls-7" d="M1842.28,677.77H1805.7V640.29h36.58Zm-33.08-3.5h29.58V643.79H1809.2Z" transform="translate(0)"/><path class="cls-7" d="M1914.53,822.8H1754.89V807.43h159.64Zm-156.14-3.5H1911v-8.37H1758.39Z" transform="translate(0)"/><path class="cls-7" d="M1758.39,822.8h-177.7V807.43h177.7Zm-174.2-3.5h170.7v-8.37h-170.7Z" transform="translate(0)"/><rect class="cls-7" x="1715.44" y="545.43" width="3.5" height="68.96"/><rect class="cls-7" x="1111.87" y="531.6" width="14.55" height="3.5"/><path class="cls-7" d="M1212.87,789.64H951.17v-146h262.1Zm-258.2-3.5h254.71l.38-139H954.67Z" transform="translate(0)"/><polygon class="cls-7" points="1380.02 789.65 1209.73 789.65 1209.76 643.66 1215.28 643.66 1298.84 544.55 1301.51 546.81 1216.91 647.16 1213.26 647.16 1213.23 786.15 1376.52 786.15 1376.55 645.36 1380.05 645.36 1380.02 789.65"/><polygon class="cls-7" points="1394.13 648.21 1376.84 648.21 1300.11 548.47 1216.91 647.16 941.9 647.16 934.15 639.41 935.21 638.18 1027.39 531.61 1037.95 531.6 1037.95 535.1 1028.99 535.11 938.93 639.24 943.35 643.66 1215.28 643.66 1300.24 542.89 1378.57 644.71 1386.86 644.71 1300.42 536.25 1299.51 535.1 1199.74 535.1 1199.74 531.6 1301.21 531.6 1303.16 534.08 1394.13 648.21"/><path class="cls-7" d="M1213,809.18H951.17v-23H1213Zm-258.31-3.5h254.81v-16H954.67Z" transform="translate(0)"/><path class="cls-7" d="M1380.06,809.18H1209.37v-23h170.69Zm-167.19-3.5h163.69v-16H1212.87Z" transform="translate(0)"/><path class="cls-7" d="M1337.67,800.31h-60.11v-14.1h60.11Zm-56.61-3.5h53.11v-7.1h-53.11Z" transform="translate(0)"/><path class="cls-7" d="M1345.89,809.18h-60.11V796.81h60.11Zm-56.61-3.5h53.11v-5.37h-53.11Z" transform="translate(0)"/><path class="cls-7" d="M1289.28,809.18h-29.65V786.1l21.43.06v10.65h8.22Zm-26.15-3.5h22.65v-5.37h-8.22V789.65l-14.43,0Z" transform="translate(0)"/><polygon class="cls-7" points="1118.57 568.7 1082.4 568.7 1055.43 538.36 1032.46 564.04 1032.46 568.65 1018.87 568.65 1011.72 561.57 1050.48 516.95 1100.17 516.96 1120.47 540.72 1117.81 542.99 1098.56 520.46 1052.08 520.45 1016.51 561.39 1020.31 565.15 1028.96 565.15 1028.96 562.7 1055.44 533.1 1083.97 565.2 1118.57 565.2 1118.57 568.7"/><path class="cls-7" d="M1083.75,605H1029V562.7l26.48-29.6L1084,565.2l34.61-.06Zm-51.29-3.5h49.7l28.7-32.86-28.46.05-27-30.34-23,25.68Z" transform="translate(0)"/><rect class="cls-7" x="1081.44" y="566.95" width="3.5" height="36.31"/><polygon class="cls-7" points="1020.93 568.02 1018.25 565.77 1054.97 522.04 1088.48 558.96 1103.15 558.96 1103.15 562.46 1086.93 562.46 1055.07 527.36 1020.93 568.02"/><path class="cls-7" d="M1160.23,595.67h-34.69V560h34.69Zm-31.19-3.5h27.69V563.53H1129Z" transform="translate(0)"/><path class="cls-7" d="M1072.37,595.67h-34.69V560h34.69Zm-31.19-3.5h27.69V563.53h-27.69Z" transform="translate(0)"/><path class="cls-7" d="M1218,568.7h-47.76l-27-30.34-23,25.68v4.61h-13.59l-7.15-7.08,1.08-1.24,37.16-42.78.52-.6H1188l37.54,43.92Zm-46.19-3.5h44.7l4.3-4.46-34.42-40.28h-46.48l-35.56,40.94,3.79,3.76h8.65V562.7l26.48-29.6Z" transform="translate(0)"/><path class="cls-7" d="M1171.61,605h-54.79V562.7l26.48-29.6,28.54,32.1,34.6-.06Zm-51.29-3.5H1170l28.71-32.86-28.46.05-27-30.34-23,25.68Z" transform="translate(0)"/><rect class="cls-7" x="1169.3" y="566.95" width="3.5" height="36.31"/><polygon class="cls-7" points="1108.79 568.02 1106.11 565.77 1142.83 522.04 1176.34 558.96 1223.21 558.96 1223.21 562.46 1174.79 562.46 1142.94 527.36 1108.79 568.02"/><path class="cls-7" d="M1136.48,764.54H964.94V684.71h171.54Zm-168-3.5H1133V688.21H968.44Z" transform="translate(0)"/><path class="cls-7" d="M1313.52,789.71h-53.86V718h53.86Zm-50.36-3.5H1310V721.47h-46.86Z" transform="translate(0)"/><path class="cls-7" d="M1306.77,789.71h-47.11V725.5h47.11Zm-43.61-3.5h40.11V729h-40.11Z" transform="translate(0)"/><path class="cls-7" d="M1360.69,715.63,1328.8,677l-30.15,37.87H1255l-6.46-6.47,37.54-45.71h43.7l37.76,46.22Zm-104.26-4.3H1297l31.79-39.93,32.2,39,1.85-1.83-34.7-42.47h-40.38l-34.49,42Z" transform="translate(0)"/><path class="cls-7" d="M1398.64,823.08H1236.49v-17.4h162.15ZM1240,819.58h155.15v-10.4H1240Z" transform="translate(0)"/><path class="cls-7" d="M1240,823.08H932.76v-17.4H1240Zm-303.73-3.5h300.23v-10.4H936.26Z" transform="translate(0)"/><path class="cls-7" d="M1301.44,641.4a20,20,0,1,1,20-20A20,20,0,0,1,1301.44,641.4Zm0-36.43a16.47,16.47,0,1,0,16.46,16.47A16.49,16.49,0,0,0,1301.44,605Z" transform="translate(0)"/><polygon class="cls-7" points="1211.81 641.07 936.54 641.07 936.54 637.57 1210.18 637.57 1299.02 532.22 1301.7 534.48 1211.81 641.07"/><rect class="cls-7" x="1017.84" y="686.46" width="3.5" height="76.44"/><rect class="cls-7" x="1075.73" y="686.46" width="3.5" height="76.44"/><rect class="cls-7" x="966.69" y="724.12" width="168.05" height="3.5"/><rect class="cls-7" x="100.58" y="819.58" width="2104.37" height="3.5"/><path class="cls-7" d="M715.53,789.62H537.42V644.94h14.85l78.89-94.67L715.57,646Zm-174.61-3.5H712l0-138.82-80.83-91.65-77.33,92.79h-13Z" transform="translate(0)"/><polygon class="cls-7" points="553.91 648.43 229.1 648.43 216.46 635.34 312.67 533.9 366.18 533.9 366.18 537.4 314.17 537.4 221.3 635.32 230.59 644.93 552.27 644.93 631.15 550.28 714.6 643.99 727.16 643.99 631.1 537.4 408.78 537.4 408.78 533.9 632.66 533.9 735.02 647.49 713.03 647.49 631.24 555.64 553.91 648.43"/><path class="cls-7" d="M651.34,789.68H594.46l.32-103.38h56.88ZM598,786.18h49.88l.3-96.38H598.27Z" transform="translate(0)"/><path class="cls-7" d="M637.74,789.68H594.46l.24-90.18H638ZM598,786.18h36.28l.22-83.18H598.19Z" transform="translate(0)"/><path class="cls-7" d="M666.24,789.68H594.46l.41-117.77h71.78ZM598,786.18h64.77l.38-110.77H598.36Z" transform="translate(0)"/><path class="cls-7" d="M734,822.48H573.28v-17H734ZM576.78,819h153.7V809H576.78Z" transform="translate(0)"/><path class="cls-7" d="M576.78,822.48H220.05v-17H576.78ZM223.55,819H573.28V809H223.55Z" transform="translate(0)"/><path class="cls-7" d="M389.05,609.58H364.43V515.86l46.1.24v68.1Zm-21.12-3.5h19.5L407,582.91V519.59l-39.1-.21Z" transform="translate(0)"/><rect class="cls-7" x="546.51" y="787.86" width="3.5" height="19.36"/><rect class="cls-7" x="238.3" y="787.86" width="3.5" height="19.36"/><path class="cls-7" d="M721.74,809H546.41V786.11H721.74Zm-171.83-3.5H718.24V789.61H549.91Z" transform="translate(0)"/><path class="cls-7" d="M683.1,800H604.16V786.18H683.1Zm-75.44-3.5H679.6v-6.78H607.66Z" transform="translate(0)"/><path class="cls-7" d="M692.4,808.93H612.25V796.46H692.4Zm-76.65-3.5H688.9V800H615.75Z" transform="translate(0)"/><path class="cls-7" d="M615.79,809h-22V786.12l13.86.07v10.29h8.13Zm-18.49-3.5h15V800h-8.13V789.67l-6.86,0Z" transform="translate(0)"/><path class="cls-7" d="M636.22,657.18a21.86,21.86,0,1,1,21.86-21.85A21.87,21.87,0,0,1,636.22,657.18Zm0-40.21a18.36,18.36,0,1,0,18.36,18.36A18.37,18.37,0,0,0,636.22,617Z" transform="translate(0)"/><path class="cls-7" d="M414.81,519.23H387.22V506.52h27.59Zm-24.09-3.5h20.59V510H390.72Z" transform="translate(0)"/><path class="cls-7" d="M390.72,519.23H358.8V506.52h31.92Zm-28.42-3.5h24.92V510H362.3Z" transform="translate(0)"/><path class="cls-7" d="M512,751.63H450.33v-64H512Zm-58.18-3.5h54.68v-57H453.83Z" transform="translate(0)"/><path class="cls-7" d="M339.89,751.63H278.21v-64h61.68Zm-58.18-3.5h54.68v-57H281.71Z" transform="translate(0)"/><path class="cls-7" d="M427.46,751.63H365.78v-64h61.68Zm-58.18-3.5H424v-57H369.28Z" transform="translate(0)"/><path class="cls-7" d="M540.92,789.61H238.3V644.94H540.92Zm-299.12-3.5H537.42V648.44H241.8Z" transform="translate(0)"/><polygon class="cls-7" points="549.08 637.08 218.88 637.08 218.88 633.58 547.44 633.58 629.76 534.52 632.46 536.76 549.08 637.08"/><rect class="cls-7" x="385.55" y="517.46" width="3.5" height="90.38"/><rect class="cls-7" x="1923.2" y="688.43" width="3.5" height="132.91"/><path class="cls-7" d="M2048.51,798.57h-90.25V785.46A33.79,33.79,0,0,1,1992,751.71h22.77a33.78,33.78,0,0,1,33.74,33.75Zm-86.75-3.5H2045v-9.61a30.28,30.28,0,0,0-30.24-30.25H1992a30.28,30.28,0,0,0-30.24,30.25Z" transform="translate(0)"/><path class="cls-7" d="M2068.27,798.57H1978V785.46a33.78,33.78,0,0,1,33.74-33.75h22.77a33.79,33.79,0,0,1,33.74,33.75Zm-86.75-3.5h83.25v-9.61a30.28,30.28,0,0,0-30.24-30.25h-22.77a30.28,30.28,0,0,0-30.24,30.25Z" transform="translate(0)"/><path class="cls-7" d="M2078.18,805.26h-129V795.07h129Zm-125.53-3.5h122v-3.19h-122Z" transform="translate(0)"/><path class="cls-7" d="M2029.27,815.51H2002.4V801.76h26.87ZM2005.9,812h19.87v-6.75H2005.9Z" transform="translate(0)"/><rect class="cls-7" x="2013.32" y="748.63" width="3.5" height="48.19"/><path class="cls-7" d="M2015.07,746a7.19,7.19,0,1,1,7.19-7.19A7.2,7.2,0,0,1,2015.07,746Zm0-10.88a3.69,3.69,0,1,0,3.69,3.69A3.69,3.69,0,0,0,2015.07,735.15Z" transform="translate(0)"/><path class="cls-7" d="M2036.09,823.08H1996V819a7,7,0,0,1,7-7h26.13a7,7,0,0,1,7,7Zm-36.59-3.5h33.09V819a3.48,3.48,0,0,0-3.48-3.48H2003a3.49,3.49,0,0,0-3.48,3.48Z" transform="translate(0)"/><path class="cls-7" d="M192.86,710.83c-21.55,0-42-9.72-54.84-26a57.64,57.64,0,0,1-20.72-43.77,56.2,56.2,0,0,1,13.82-36.9l3.68-4.31,0-5.5c.15-28,24.58-50.77,54.46-50.77a58.84,58.84,0,0,1,10.38.94l.22.05c1.48.28,2.93.61,4.34,1,31.26,7.87,48.89,30.33,54.47,47.17l-3.32,1.1c-5.73-17.26-24-37.83-52-44.88-1.35-.37-2.71-.68-4.07-.93l-.17,0a54.83,54.83,0,0,0-9.81-.9c-28,0-50.82,21.22-51,47.29l0,6.78-4.51,5.28a52.77,52.77,0,0,0-13,34.63,54.15,54.15,0,0,0,19.62,41.21l.24.26c12.14,15.52,31.66,24.79,52.2,24.79,21,0,36.37-4.49,46.9-13.71l2.31,2.63C230.87,706.06,214.77,710.83,192.86,710.83Z" transform="translate(0)"/><rect class="cls-7" x="195.27" y="709.08" width="3.5" height="112.14"/><rect class="cls-7" x="193.24" y="746.92" width="34.53" height="3.5" transform="translate(-439.65 321.92) rotate(-41.02)"/><rect class="cls-7" x="186.3" y="719.98" width="3.5" height="31.64" transform="translate(-401.53 257.1) rotate(-36.59)"/><path class="cls-7" d="M799.45,642.09H766.52v-1.75a16.21,16.21,0,0,1,10.55-15.25l1.74-6.67h8.7l1.74,6.82a16.28,16.28,0,0,1,10.2,15.1Zm-29.31-3.5h25.69a12.78,12.78,0,0,0-8.6-10.36l-.91-.31-1.53-6h-3.27L780,627.83l-.94.29A12.7,12.7,0,0,0,770.14,638.59Z" transform="translate(0)"/><path class="cls-7" d="M794.69,670.63H771.11l-6.15-32h35.58ZM774,667.13h17.76l4.57-25H769.19Z" transform="translate(0)"/><path class="cls-7" d="M791.39,795.1H775.74l2.89-18.32h9.29Zm-11.56-3.5h7.33L785,780.28h-3.4Z" transform="translate(0)"/><path class="cls-7" d="M802.32,823.08H764.08V810.72h5.31l2.53-19.12h22.5l2.89,19.12h5Zm-34.74-3.5h31.24v-5.36H794.3l-2.89-19.12H775l-2.52,19.12h-4.88Z" transform="translate(0)"/><path class="cls-7" d="M803.8,642.09H762.16a1.75,1.75,0,0,1,0-3.5H803.8a1.75,1.75,0,0,1,0,3.5Z" transform="translate(0)"/><rect class="cls-7" x="781.78" y="669.89" width="3.5" height="103.71"/><path class="cls-7" d="M789.28,698.11h-11.5a1.75,1.75,0,0,1,0-3.5h11.5a1.75,1.75,0,0,1,0,3.5Z" transform="translate(0)"/><path class="cls-7" d="M789.28,743.67h-11.5a1.75,1.75,0,0,1,0-3.5h11.5a1.75,1.75,0,0,1,0,3.5Z" transform="translate(0)"/><rect class="cls-7" x="770.92" y="810.72" width="25.85" height="3.5"/><path class="cls-7" d="M2142.32,642.09h-32.93v-1.75A16.22,16.22,0,0,1,2120,625.09l1.74-6.67h8.69l1.75,6.82a16.29,16.29,0,0,1,10.19,15.1Zm-29.31-3.5h25.69a12.74,12.74,0,0,0-8.6-10.36l-.9-.31-1.54-6h-3.27l-1.54,5.91-.93.29A12.71,12.71,0,0,0,2113,638.59Z" transform="translate(0)"/><path class="cls-7" d="M2137.56,670.63H2114l-6.16-32h35.59Zm-20.68-3.5h17.77l4.57-25h-27.15Z" transform="translate(0)"/><path class="cls-7" d="M2134.27,795.1h-15.66l2.9-18.32h9.28Zm-11.56-3.5H2130l-2.15-11.32h-3.39Z" transform="translate(0)"/><path class="cls-7" d="M2145.19,823.08H2107V810.72h5.31l2.53-19.12h22.51l2.89,19.12h5Zm-34.74-3.5h31.24v-5.36h-4.52l-2.88-19.12h-16.43l-2.53,19.12h-4.88Z" transform="translate(0)"/><path class="cls-7" d="M2146.68,642.09H2105a1.75,1.75,0,0,1,0-3.5h41.64a1.75,1.75,0,0,1,0,3.5Z" transform="translate(0)"/><rect class="cls-7" x="2124.66" y="669.89" width="3.5" height="103.71"/><path class="cls-7" d="M2132.15,698.11h-11.49a1.75,1.75,0,0,1,0-3.5h11.49a1.75,1.75,0,0,1,0,3.5Z" transform="translate(0)"/><path class="cls-7" d="M2132.15,743.67h-11.49a1.75,1.75,0,0,1,0-3.5h11.49a1.75,1.75,0,0,1,0,3.5Z" transform="translate(0)"/><rect class="cls-7" x="2113.8" y="810.72" width="25.85" height="3.5"/><path class="cls-7" d="M1493.16,822.47A16.44,16.44,0,1,1,1509.59,806,16.47,16.47,0,0,1,1493.16,822.47Zm0-29.38A12.94,12.94,0,1,0,1506.09,806,13,13,0,0,0,1493.16,793.09Z" transform="translate(0)"/><path class="cls-7" d="M1546,822.47A16.44,16.44,0,1,1,1562.44,806,16.46,16.46,0,0,1,1546,822.47Zm0-29.38A12.94,12.94,0,1,0,1558.94,806,13,13,0,0,0,1546,793.09Z" transform="translate(0)"/><path class="cls-7" d="M1547.16,775h-22l-2.55-9.28,3.38-.93,1.84,6.71h15.07c-4.44-18.93-19.36-28.75-19.52-28.85l1.89-2.94a53.17,53.17,0,0,1,21.5,33.22Z" transform="translate(0)"/><rect class="cls-7" x="1519.23" y="746.08" width="3.5" height="13.75" transform="matrix(0.97, -0.26, 0.26, 0.97, -142.27, 415.43)"/><path class="cls-7" d="M1516.93,747.81h-.21c-4.69-.2-8.22-6.61-8-11.79a10.22,10.22,0,0,1,.45-2.66l3.35,1a7.64,7.64,0,0,0-.31,1.8c-.16,3.94,2.57,8.07,4.65,8.15h.07c1.15,0,2.64-1.21,3.74-3l3,1.8C1521.88,746.05,1519.37,747.81,1516.93,747.81Z" transform="translate(0)"/><path class="cls-7" d="M1523.32,743.58l-2.89-2,3.2-4.7c-.09-1.8-.69-5.49-2.84-7.1a5.9,5.9,0,0,0-5.54-.3,6.41,6.41,0,0,0-3.55,3.68l4.17.32-.26,3.49-8.06-.62.23-1.83a10.13,10.13,0,0,1,6.11-8.27,9.26,9.26,0,0,1,9,.73c4.3,3.21,4.26,10.15,4.26,10.44V738Z" transform="translate(0)"/><path class="cls-7" d="M1494.82,806.56l-3.33-1.06,12.38-38.76,8.15-.07.52.52a5.61,5.61,0,0,1,1.65,4v.89h-3.5v-.89a2.26,2.26,0,0,0-.24-1l-4,0Z" transform="translate(0)"/><rect class="cls-7" x="1539.63" y="781.19" width="3.5" height="25.71" transform="translate(-182.48 607.92) rotate(-21.09)"/><polygon class="cls-7" points="1512.27 770.69 1511.29 767.33 1530.34 761.78 1531.93 759.96 1527.8 752.21 1530.88 750.56 1536.16 760.44 1532.3 764.86 1512.27 770.69"/><rect class="cls-7" x="1508.34" y="760.87" width="18.98" height="3.5" transform="translate(-164.18 999.76) rotate(-34.7)"/><rect class="cls-7" x="1500.82" y="766.68" width="4.33" height="3.5"/><rect class="cls-7" x="1513.11" y="802.78" width="4.95" height="3.5"/><path class="cls-7" d="M1523.68,813.64h-9.52v-3.5h3.12L1514.36,785l11.32-13.48h18.76l-.21,2c-1,8.64-15.73,14.72-20.35,16.42ZM1518,786.07l2.24,19.27.15-18,1.18-.39c4.57-1.55,15.8-6.42,18.57-12h-12.84Z" transform="translate(0)"/><path class="cls-7" d="M885.24,780.85h-3.5V752.27h3.84a26.17,26.17,0,0,1,26.14,26.14v2.05h-3.5v-2.05a22.67,22.67,0,0,0-22.64-22.64h-.34Z" transform="translate(0)"/><path class="cls-7" d="M844.2,734.61a8.89,8.89,0,0,1-5.26-2l2.11-2.79c1.54,1.15,3,1.57,4,1.14,1.69-.71,2.59-6.78,1.1-10.47l3.25-1.31c1.87,4.64,1.27,13.21-3,15A5.71,5.71,0,0,1,844.2,734.61Z" transform="translate(0)"/><rect class="cls-7" x="816.94" y="802.02" width="33.68" height="3.5" transform="translate(-279.83 1121.73) rotate(-59.89)"/><polygon class="cls-7" points="827.08 822.04 820.25 816.41 822.46 811.4 832.76 784.49 836.03 785.74 825.69 812.74 824.52 815.39 829.31 819.34 827.08 822.04"/><polygon class="cls-7" points="851.9 820.32 848.4 820.32 848.4 785.44 848.23 784.27 851.7 783.78 851.9 785.31 851.9 820.32"/><polygon class="cls-7" points="856.01 822.27 844.89 822.27 839.83 785.35 843.3 784.88 847.95 818.77 856.01 818.77 856.01 822.27"/><polygon class="cls-7" points="827.82 786.08 831.48 765.73 834.93 766.35 832.01 782.53 850.94 782.3 848.68 766.94 852.14 766.43 854.99 785.75 827.82 786.08"/><path class="cls-7" d="M831.5,768.49l0-1.72c-.37-16.66.6-22.23,2.64-27.2l3.24,1.34c-1.79,4.35-2.68,9.36-2.42,24.07l13.37,0-.35-1.91-.57-10.46,1.58-4.41L843.88,739l-1.82-6,3.35-1,1.76,5.79,5.61,10-1.88,5.24.53,9.63,1.1,5.71Z" transform="translate(0)"/><path class="cls-7" d="M842,743.35l-1.81-.07c-.34,0-8.24-.42-10-7.42l-.07-.29,0-.3c.23-2.54,1.56-15.36,4.58-18.77,3.17-3.57,8.36-3.43,11.63-1.49,1.64,1,3.36,3.61,3.69,4.13l1.29,2-9.21,2.39Zm-8.38-8.08a6.57,6.57,0,0,0,4.9,4.2l.08-18.62,7-1.82a5,5,0,0,0-1.06-1c-2.1-1.24-5.37-1.28-7.23.8C835.65,720.66,834.17,729.43,833.6,735.27Z" transform="translate(0)"/><path class="cls-7" d="M903.76,794.67H869.22a8,8,0,0,1-8-8V779.1h50.46v7.61A8,8,0,0,1,903.76,794.67Zm-39-12.07v4.11a4.46,4.46,0,0,0,4.46,4.46h34.54a4.46,4.46,0,0,0,4.46-4.46V782.6Z" transform="translate(0)"/><polygon class="cls-7" points="856.78 769.12 839.59 759.9 835.25 748.46 838.52 747.22 842.4 757.43 858.43 766.03 856.78 769.12"/><rect class="cls-7" x="877.53" y="799.85" width="22.16" height="3.5" transform="translate(-291.81 998.54) rotate(-51.53)"/><polygon class="cls-7" points="895.79 812.12 862.16 769.18 856.69 769.18 856.69 765.68 863.86 765.68 898.54 809.96 895.79 812.12"/><path class="cls-7" d="M901.08,821.9a8,8,0,1,1,8-8A8,8,0,0,1,901.08,821.9Zm0-12.5a4.5,4.5,0,1,0,4.5,4.5A4.51,4.51,0,0,0,901.08,809.4Z" transform="translate(0)"/><path class="cls-7" d="M879,821.9a8,8,0,1,1,8-8A8,8,0,0,1,879,821.9Zm0-12.5a4.5,4.5,0,1,0,4.5,4.5A4.51,4.51,0,0,0,879,809.4Z" transform="translate(0)"/><rect class="cls-7" x="1917.81" y="705.05" width="39.14" height="3.5" transform="translate(67.68 1576.99) rotate(-45)"/></g></svg>