<svg width="50" height="62" viewBox="0 0 50 62" fill="none" xmlns="http://www.w3.org/2000/svg">
<path fill-rule="evenodd" clip-rule="evenodd" d="M9.375 47.4087C8.09412 47.4087 6.86571 47.9176 5.96 48.8233C5.05428 49.729 4.54545 50.9574 4.54545 52.2383C4.54545 53.4935 3.52792 54.511 2.27273 54.511C1.01753 54.511 0 53.4935 0 52.2383C0 49.7519 0.987721 47.3673 2.74587 45.6092C4.50403 43.851 6.8886 42.8633 9.375 42.8633H47.7273C48.9825 42.8633 50 43.8808 50 45.136C50 46.3912 48.9825 47.4087 47.7273 47.4087H9.375Z" fill="#174D89"/>
<path fill-rule="evenodd" clip-rule="evenodd" d="M9.375 4.79545C8.09412 4.79545 6.86571 5.30428 5.96 6.21C5.05428 7.11571 4.54545 8.34412 4.54545 9.625V52.2386C4.54545 53.5195 5.05428 54.7479 5.96 55.6536C6.86571 56.5594 8.09412 57.0682 9.375 57.0682H45.4545V4.79545H9.375ZM9.375 0.25H47.7273C48.9825 0.25 50 1.26753 50 2.52273V59.3409C50 60.5961 48.9825 61.6136 47.7273 61.6136H9.375C6.8886 61.6136 4.50403 60.6259 2.74587 58.8678C0.987721 57.1096 0 54.725 0 52.2386V9.625C0 7.1386 0.987721 4.75403 2.74587 2.99587C4.50403 1.23772 6.8886 0.25 9.375 0.25Z" fill="#174D89"/>
</svg>
