<svg width="30" height="30" viewBox="0 0 30 30" fill="none" xmlns="http://www.w3.org/2000/svg">
<path d="M30 15C30 23.2843 23.2843 30 15 30C6.71573 30 0 23.2843 0 15C0 6.71573 6.71573 0 15 0C23.2843 0 30 6.71573 30 15Z" fill="#E8EEF4"/>
<path d="M11.818 19.6064C11.2323 19.0206 11.2323 18.0708 11.818 17.4851L19.2427 10.0604C19.8284 9.47465 20.7782 9.47465 21.364 10.0604C21.9498 10.6462 21.9498 11.596 21.364 12.1818L13.9394 19.6064C13.3536 20.1922 12.4038 20.1922 11.818 19.6064Z" fill="#174D89"/>
<path d="M13.864 19.6064C13.2782 20.1922 12.3284 20.1922 11.7427 19.6064L8.56068 16.4244C7.97489 15.8386 7.97489 14.8889 8.56068 14.3031C9.14646 13.7173 10.0962 13.7173 10.682 14.3031L13.864 17.4851C14.4498 18.0708 14.4498 19.0206 13.864 19.6064Z" fill="#174D89"/>
</svg>
