<?xml version="1.0" encoding="utf-8"?>
<!-- Generator: Adobe Illustrator 24.2.0, SVG Export Plug-In . SVG Version: 6.00 Build 0)  -->
<svg version="1.1" id="Layer_1" xmlns="http://www.w3.org/2000/svg" xmlns:xlink="http://www.w3.org/1999/xlink" x="0px" y="0px"
	 viewBox="0 0 1000 600" style="enable-background:new 0 0 1000 600;" xml:space="preserve">
<style type="text/css">
	.st0{fill:url(#SVGID_1_);}
	.st1{clip-path:url(#SVGID_3_);}
	.st2{fill:#5F6767;}
	.st3{fill:url(#SVGID_4_);}
	.st4{fill:url(#SVGID_5_);}
	.st5{fill:url(#SVGID_6_);}
</style>
<g id="Ñëîé_1">
	
		<linearGradient id="SVGID_1_" gradientUnits="userSpaceOnUse" x1="473.1953" y1="1161.52" x2="473.1953" y2="1149.08" gradientTransform="matrix(1 0 0 1 0 -696)">
		<stop  offset="2.000000e-02" style="stop-color:#5F6767"/>
		<stop  offset="0.48" style="stop-color:#676B6C"/>
		<stop  offset="0.51" style="stop-color:#717576"/>
		<stop  offset="0.62" style="stop-color:#878A8B"/>
		<stop  offset="0.72" style="stop-color:#949899"/>
		<stop  offset="0.81" style="stop-color:#999C9D"/>
	</linearGradient>
	<path class="st0" d="M471.2,453.4L471.2,453.4v-0.3H470c0,0-3.3,10.5,6.9,12.4C468.2,463,471.2,453.4,471.2,453.4z"/>
	<path d="M849.9,477c0,11.9-7.2,21.5-16,21.5H166.2c-8.9,0-16-9.7-16-21.5V48.6c0-11.9,7.2-21.5,16-21.5h667.6c8.9,0,16,9.7,16,21.5
		L849.9,477z"/>
	<g>
		<g>
			<defs>
				<rect id="SVGID_2_" x="178" y="52.9" width="645.9" height="398.2"/>
			</defs>
			<clipPath id="SVGID_3_">
				<use xlink:href="#SVGID_2_"  style="overflow:visible;"/>
			</clipPath>
			<g class="st1">
				
					<image style="overflow:visible;enable-background:new    ;" width="1068" height="600" xlink:href="../../../../../../../../../../Downloads/Screenshot_2020-06-22 ASK DOSS.png"  transform="matrix(0.6919 0 0 0.6919 130.55 48.7831)">
				</image>
			</g>
		</g>
	</g>
	<path class="st2" d="M31,505c0,0-5.8,10.8,35.5,19.9h866c0,0,29-1.8,36.6-15.5v-7.5L31,505z"/>
	
		<linearGradient id="SVGID_4_" gradientUnits="userSpaceOnUse" x1="30.5" y1="1192.7057" x2="969.4576" y2="1192.7057" gradientTransform="matrix(1 0 0 1 0 -696)">
		<stop  offset="0" style="stop-color:#999C9D"/>
		<stop  offset="0" style="stop-color:#A5A7A9"/>
		<stop  offset="0" style="stop-color:#C2C3C5"/>
		<stop  offset="1.000000e-02" style="stop-color:#D9D8DA"/>
		<stop  offset="1.000000e-02" style="stop-color:#E9E7EA"/>
		<stop  offset="1.000000e-02" style="stop-color:#F2F0F3"/>
		<stop  offset="2.000000e-02" style="stop-color:#F5F3F6"/>
		<stop  offset="5.000000e-02" style="stop-color:#DFE1E3"/>
		<stop  offset="0.19" style="stop-color:#D1D1D1"/>
		<stop  offset="0.51" style="stop-color:#E3E5E7"/>
		<stop  offset="0.87" style="stop-color:#D1D1D1"/>
		<stop  offset="0.95" style="stop-color:#DFE1E3"/>
		<stop  offset="0.99" style="stop-color:#F5F3F6"/>
		<stop  offset="1" style="stop-color:#999C9D"/>
	</linearGradient>
	<path class="st3" d="M31.1,483.2h938.3v24.1c0,0,1.4,3.2-9.6,2.4H40c0,0-8.6,2.4-9.5-3.2L31.1,483.2z"/>
	<path class="st2" d="M925.8,497.2c0.1,0.9-0.5,1.6-1.4,1.7h-32c-0.8-0.1-1.5-0.9-1.4-1.7l0,0c-0.1-0.8,0.5-1.6,1.4-1.7h31.9
		C925.2,495.6,925.9,496.4,925.8,497.2L925.8,497.2z"/>
	
		<linearGradient id="SVGID_5_" gradientUnits="userSpaceOnUse" x1="499.9726" y1="1192.6445" x2="499.9726" y2="1179.3301" gradientTransform="matrix(1 0 0 1 0 -696)">
		<stop  offset="0.34" style="stop-color:#676B6C"/>
		<stop  offset="0.36" style="stop-color:#707475"/>
		<stop  offset="0.46" style="stop-color:#989B9C"/>
		<stop  offset="0.55" style="stop-color:#B7B9BB"/>
		<stop  offset="0.64" style="stop-color:#CDCFD1"/>
		<stop  offset="0.73" style="stop-color:#DADDDE"/>
		<stop  offset="0.81" style="stop-color:#DFE1E3"/>
		<stop  offset="0.98" style="stop-color:#E3E5E7"/>
	</linearGradient>
	<path class="st4" d="M436.5,483.3c0,0-3.6,12.1,8.4,13.3h108.9c0,0,11.6,1.5,10-12.9L436.5,483.3z"/>
	
		<linearGradient id="SVGID_6_" gradientUnits="userSpaceOnUse" x1="503.745" y1="1192.0847" x2="503.745" y2="1179.7001" gradientTransform="matrix(1 0 0 1 0 -696)">
		<stop  offset="2.000000e-02" style="stop-color:#5F6767"/>
		<stop  offset="0.48" style="stop-color:#676B6C"/>
		<stop  offset="0.51" style="stop-color:#717576"/>
		<stop  offset="0.62" style="stop-color:#878A8B"/>
		<stop  offset="0.72" style="stop-color:#949899"/>
		<stop  offset="0.81" style="stop-color:#999C9D"/>
	</linearGradient>
	<path class="st5" d="M564.5,483.7h-1.2v0.3c0.9,13.5-10.1,11.7-10.1,11.7H444.5l-1.6-0.2c0.9,0.2,1.8,0.4,2.8,0.5h108.8
		C554.5,496,565.7,497.9,564.5,483.7z"/>
</g>
</svg>
