<svg id="Layer_1" data-name="Layer 1" xmlns="http://www.w3.org/2000/svg" xmlns:xlink="http://www.w3.org/1999/xlink" viewBox="0 0 1241 341.65"><defs><style>.cls-1{fill:#14508d;}.cls-2{fill:url(#linear-gradient);}.cls-3{fill:#fff;}</style><linearGradient id="linear-gradient" x1="655.38" y1="920.82" x2="655.38" y2="579.18" gradientTransform="translate(722.29 -243.75) rotate(45)" gradientUnits="userSpaceOnUse"><stop offset="0" stop-color="#e95242"/><stop offset="0.34" stop-color="#ed6540"/><stop offset="1" stop-color="#f7943a"/></linearGradient></defs><path class="cls-1" d="M413.61,630Q366.38,586.74,278,586.74H161.29v0a32.08,32.08,0,0,0,0,64.16V651H276.11q56.24,0,83.4,26.23t27.17,74.89q0,48.68-27.17,74.19t-77.72,25.53H235V711.91a36.86,36.86,0,1,0-73.72,0V881a36,36,0,0,0,36,36h76.9q94.5,0,140.58-44.89t46.08-121.9q0-77-47.27-120.28" transform="translate(-129.5 -579.18)"/><path class="cls-1" d="M1072.45,753.54q-26-23.17-73-34.73t-60-20.09q-13-8.49-13-22.92t10.63-23.14q10.62-8.73,29.06-8.76,30,0,58.75,14c.85.42,1.7.84,2.55,1.28l2.06,1,7.14,3.35a30.92,30.92,0,0,0,9.75,1.65,33.62,33.62,0,0,0,23.63-10.3,34.19,34.19,0,0,0,6.24-9,33.75,33.75,0,0,0-10.06-41.25c-1.64-.91-3.29-1.81-5-2.69s-3.52-1.79-5.31-2.65a195.86,195.86,0,0,0-21.27-8.7,202.85,202.85,0,0,0-66.14-11.34q-50.58,0-84.35,25.51t-33.78,72.54q0,47,26.69,69t84.35,35.67q36.39,9,48.66,17.72t12.3,23.62q0,14.91-11.58,23.63t-31.9,8.75q-34,0-72.53-26.29l-.07.12a35,35,0,0,0-43.91,54.48c1.08.76,2.17,1.51,3.26,2.24q2.45,1.67,4.91,3.24,49.25,31.41,106.93,31.42,54.33,0,87.65-27.65t33.31-72.06q0-44.42-26-67.57" transform="translate(-129.5 -579.18)"/><path class="cls-1" d="M1344.5,753.54q-26-23.17-73-34.73t-60-20.09c-8.68-5.66-13-13.31-13-22.92s3.54-17.31,10.62-23.14,16.78-8.76,29.06-8.76q30,0,58.74,14c.86.42,1.71.84,2.56,1.28l2.07,1,7.13,3.35a31,31,0,0,0,9.76,1.65,33.73,33.73,0,0,0,19.8-60.55c-1.63-.91-3.29-1.81-5-2.69s-3.53-1.79-5.32-2.65a195.69,195.69,0,0,0-21.26-8.7,202.86,202.86,0,0,0-66.15-11.34q-50.58,0-84.34,25.51t-33.79,72.54q0,47,26.7,69t84.34,35.67q36.39,9,48.66,17.72t12.3,23.62q0,14.91-11.58,23.63t-31.9,8.75q-34,0-72.52-26.29l-.08.12a35,35,0,0,0-43.91,54.48c1.08.76,2.17,1.51,3.26,2.24q2.44,1.67,4.92,3.24,49.25,31.41,106.92,31.42,54.33,0,87.65-27.65t33.32-72.06q0-44.42-26-67.57" transform="translate(-129.5 -579.18)"/><circle class="cls-2" cx="655.38" cy="750" r="170.82" transform="translate(-467.88 103.91) rotate(-45)"/><path class="cls-3" d="M729.3,661c-6.08,0-12.78.29-19.94.87A56,56,0,0,0,599.55,677.3v7.8c-9.17,3.13-17.49,6.38-24.75,9.65-23.35,10.52-33.22,19.91-31.08,29.56,2.07,9.31,14.15,13.64,38,13.64,5.5,0,11.47-.23,17.8-.7v35.52a56,56,0,1,0,112,0v-58.9c5.33-1.82,10.51-3.74,15.45-5.72a14.08,14.08,0,0,0,23.45-10.56c0-.19,0-.38,0-.58,13-7.67,18.59-15,17-22.35-2.07-9.31-14.16-13.64-38-13.64M599.55,724.49c-6.48.51-12.46.77-17.8.77-18.15,0-23.91-2.79-25.37-3.77.94-1.56,5.29-6.89,23.64-15.16,5.8-2.62,12.36-5.23,19.53-7.78Zm99.26,48.28a43.28,43.28,0,0,1-86.56,0V736.06a472.94,472.94,0,0,0,49.53-8.42c12.84-2.85,25.28-6.1,37-9.68Zm0-68.1c-12.46,3.92-25.83,7.48-39.79,10.57a472.23,472.23,0,0,1-46.77,8v-46a43.28,43.28,0,0,1,86.39-3.79c.11,1.37.17,2.6.17,3.79Zm45.35-18.74a14,14,0,0,0-22,10.44c-3.49,1.4-7.07,2.75-10.7,4V677.3c0-.93,0-1.87-.07-2.82,6.48-.51,12.49-.77,17.87-.77,18.15,0,23.91,2.79,25.37,3.77-.66,1.09-3,4-10.51,8.45" transform="translate(-129.5 -579.18)"/><path class="cls-3" d="M729.58,753a6.61,6.61,0,0,0-6.83,6.36v19.34a54.5,54.5,0,0,1-5.25,23.32,60.3,60.3,0,0,1-14.36,19.1,67.82,67.82,0,0,1-21.37,12.92,74.73,74.73,0,0,1-52.49,0,68.23,68.23,0,0,1-21.37-12.92,60.16,60.16,0,0,1-14.35-19.1,54.3,54.3,0,0,1-5.26-23.32V759.4a6.84,6.84,0,0,0-13.65,0v19.34a66.21,66.21,0,0,0,6.4,28.43,72.57,72.57,0,0,0,17.37,23.12,81.63,81.63,0,0,0,25.69,15.54,87.52,87.52,0,0,0,24.59,5.44v13.64H623.62a6.37,6.37,0,1,0,0,12.7h63.81a6.37,6.37,0,1,0,0-12.7H662.36V851.27A87.59,87.59,0,0,0,687,845.83a81.74,81.74,0,0,0,25.69-15.54A72.79,72.79,0,0,0,730,807.16a66.2,66.2,0,0,0,6.4-28.42V759.4a6.61,6.61,0,0,0-6.83-6.36" transform="translate(-129.5 -579.18)"/></svg>