<svg width="60" height="60" viewBox="0 0 60 60" fill="none" xmlns="http://www.w3.org/2000/svg">
<circle cx="30" cy="30" r="30" fill="#174D89"/>
<g clip-path="url(#clip0)">
<path fill-rule="evenodd" clip-rule="evenodd" d="M24.2519 15.6679C24.5301 15.2507 24.9985 15 25.5 15H34.5C35.0015 15 35.4699 15.2507 35.7481 15.6679L38.3028 19.5H43.5C44.6935 19.5 45.8381 19.9741 46.682 20.818C47.5259 21.6619 48 22.8065 48 24V40.5C48 41.6935 47.5259 42.8381 46.682 43.682C45.8381 44.5259 44.6935 45 43.5 45H16.5C15.3065 45 14.1619 44.5259 13.318 43.682C12.4741 42.8381 12 41.6935 12 40.5V24C12 22.8065 12.4741 21.6619 13.318 20.818C14.1619 19.9741 15.3065 19.5 16.5 19.5H21.6972L24.2519 15.6679ZM26.3028 18L23.7481 21.8321C23.4699 22.2493 23.0015 22.5 22.5 22.5H16.5C16.1022 22.5 15.7206 22.658 15.4393 22.9393C15.158 23.2206 15 23.6022 15 24V40.5C15 40.8978 15.158 41.2794 15.4393 41.5607C15.7206 41.842 16.1022 42 16.5 42H43.5C43.8978 42 44.2794 41.842 44.5607 41.5607C44.842 41.2794 45 40.8978 45 40.5V24C45 23.6022 44.842 23.2206 44.5607 22.9393C44.2794 22.658 43.8978 22.5 43.5 22.5H37.5C36.9985 22.5 36.5301 22.2493 36.2519 21.8321L33.6972 18H26.3028Z" fill="white"/>
<path fill-rule="evenodd" clip-rule="evenodd" d="M30 27C27.5147 27 25.5 29.0147 25.5 31.5C25.5 33.9853 27.5147 36 30 36C32.4853 36 34.5 33.9853 34.5 31.5C34.5 29.0147 32.4853 27 30 27ZM22.5 31.5C22.5 27.3579 25.8579 24 30 24C34.1421 24 37.5 27.3579 37.5 31.5C37.5 35.6421 34.1421 39 30 39C25.8579 39 22.5 35.6421 22.5 31.5Z" fill="white"/>
</g>
<defs>
<clipPath id="clip0">
<rect width="36" height="36" fill="white" transform="translate(12 12)"/>
</clipPath>
</defs>
</svg>
