<svg id="Foreground" xmlns="http://www.w3.org/2000/svg" xmlns:xlink="http://www.w3.org/1999/xlink" viewBox="0 0 1190.55 841.89"><defs><style>.cls-1{fill:url(#linear-gradient);}.cls-2{fill:#a6ebff;}.cls-2,.cls-3{fill-rule:evenodd;}.cls-3{fill:url(#linear-gradient-2);}.cls-4{fill:url(#linear-gradient-3);}.cls-5{fill:url(#linear-gradient-4);}</style><linearGradient id="linear-gradient" x1="595.28" y1="841.89" x2="595.28" y2="-3.41" gradientUnits="userSpaceOnUse"><stop offset="0" stop-color="#fff"/><stop offset="0.44" stop-color="#fff"/><stop offset="0.58" stop-color="#e2fbff"/><stop offset="0.75" stop-color="#c2f7ff"/><stop offset="0.87" stop-color="#b2f0ff"/><stop offset="1" stop-color="#a6ebff"/></linearGradient><linearGradient id="linear-gradient-2" x1="595.28" y1="841.89" x2="595.28" y2="145.61" gradientUnits="userSpaceOnUse"><stop offset="0" stop-color="#40b3e3"/><stop offset="0.28" stop-color="#3cafe0"/><stop offset="0.56" stop-color="#31a2d7"/><stop offset="0.85" stop-color="#1e8ec9"/><stop offset="1" stop-color="#1280bf"/></linearGradient><linearGradient id="linear-gradient-3" x1="576.37" y1="844" x2="576.37" y2="293.95" gradientUnits="userSpaceOnUse"><stop offset="0" stop-color="#1280bf"/><stop offset="0.29" stop-color="#107cbb"/><stop offset="0.61" stop-color="#0b6faf"/><stop offset="0.93" stop-color="#025a9b"/><stop offset="1" stop-color="#005496"/></linearGradient><linearGradient id="linear-gradient-4" x1="595.27" y1="841.89" x2="595.27" y2="404.46" gradientUnits="userSpaceOnUse"><stop offset="0" stop-color="#002442"/><stop offset="0.17" stop-color="#003560"/><stop offset="0.35" stop-color="#004378"/><stop offset="0.54" stop-color="#004c89"/><stop offset="0.74" stop-color="#005293"/><stop offset="1" stop-color="#005496"/></linearGradient></defs><title>blue_skyline</title><rect class="cls-1" width="1190.55" height="841.89" rx="2.83"/><polygon class="cls-2" points="1190.55 773.89 1190.55 425.82 1125.63 426.36 1119.91 414.11 1113.4 414.11 1113.4 425.29 1084.52 425.29 1084.52 406.12 1073.07 406.12 1073.07 398.66 999.43 398.66 999.43 411.98 988.24 423.69 988.24 402.92 975.23 402.92 975.23 425.82 950.52 425.82 950.52 396.53 926.06 396.53 926.06 457.78 881.82 457.78 860.23 457.78 860.23 409.85 856.32 409.85 856.32 398.13 852.68 398.13 852.68 388.55 846.96 388.55 846.96 397.07 843.05 397.07 770.2 397.07 770.2 405.59 751.46 405.59 747.04 414.64 744.44 414.64 744.44 381.09 722.58 381.09 722.58 372.04 709.05 372.04 709.05 378.96 682.51 378.96 682.51 383.75 679.91 383.75 679.91 422.63 669.24 422.63 661.43 402.39 656.75 402.39 656.75 421.56 646.08 421.56 646.08 415.17 636.45 415.17 636.45 376.3 634.11 376.3 634.11 369.37 638.01 369.37 638.01 364.58 610.17 364.58 610.17 353.93 604.71 353.93 604.71 349.14 598.46 349.14 598.46 362.45 594.3 362.45 594.3 350.2 588.05 350.2 588.05 323.57 570.62 323.57 570.62 293.22 562.03 293.22 558.91 296.41 558.91 320.91 542.26 320.91 542.26 406.65 536.27 406.65 536.27 430.08 528.21 430.08 528.21 379.49 493.86 379.49 493.86 233.57 480.85 233.57 480.85 219.72 468.36 219.72 468.36 234.1 463.16 234.1 463.16 239.43 460.3 239.43 460.3 376.3 448.85 376.3 448.85 394.94 444.43 394.94 444.43 274.58 434.02 274.58 434.02 262.33 422.57 262.33 422.57 273.51 416.06 273.51 416.06 278.31 411.64 278.31 411.64 355.52 398.89 355.52 398.89 345.41 391.6 345.41 391.6 351.8 384.58 351.8 384.58 360.32 368.7 360.32 368.7 399.73 348.15 399.73 348.15 378.96 350.23 378.96 350.23 373.63 333.06 373.63 333.06 360.32 326.55 360.32 326.55 347 318.75 347 318.75 360.85 310.94 360.85 260.2 339.02 251.35 343.81 248.49 337.95 238.87 337.95 238.87 321.98 234.18 321.98 234.18 312.92 230.54 312.92 230.54 319.85 226.38 319.85 226.38 340.62 222.21 340.62 222.21 334.76 215.45 334.76 215.45 346.47 211.81 346.47 211.81 337.95 206.6 337.95 206.6 341.68 202.7 341.68 202.7 349.14 188.13 349.14 188.13 376.3 181.62 376.3 181.62 382.15 177.46 382.15 177.46 375.76 166.27 375.76 166.27 348.07 161.85 348.07 161.85 362.98 156.9 362.98 156.9 359.25 153 359.25 153 370.44 147.27 370.44 147.27 311.86 142.07 311.86 142.07 303.87 132.96 303.87 132.96 309.73 123.86 309.73 123.86 290.55 118.65 290.55 118.65 278.84 112.15 262.86 112.41 233.04 110.33 233.57 110.33 260.2 107.72 260.2 104.34 267.65 103.56 283.1 99.66 277.24 99.4 269.79 91.59 269.79 91.59 276.18 89.25 276.18 89.25 266.59 76.5 266.59 71.04 276.18 71.04 367.24 67.13 367.24 67.13 361.92 58.55 361.92 53.86 361.92 47.88 349.67 47.88 325.17 45.27 325.17 45.27 152.62 32.27 152.62 32.27 135.58 19.52 135.58 19.52 151.03 4.42 151.03 4.42 399.2 0 399.2 0 773.89 1190.55 773.89"/><polygon class="cls-3" points="0 841.89 1.01 245.31 7.04 232.24 7.04 218.34 45.23 218.34 45.73 149.69 46.99 145.61 46.74 218.34 77.64 219.98 77.9 236.32 82.42 244.9 81.67 492.94 103.53 493.35 109.06 483.95 115.34 483.95 115.34 492.53 143.23 492.53 143.23 477.82 154.28 477.82 154.28 472.1 225.4 472.1 225.4 482.31 236.2 491.3 236.2 475.37 248.76 475.37 248.76 492.94 272.64 492.94 272.64 470.46 296.26 470.46 296.26 517.46 338.97 517.46 359.83 517.46 359.83 480.68 363.6 480.68 363.6 471.69 367.12 471.69 367.12 464.33 372.64 464.33 372.64 470.87 376.41 470.87 446.77 470.87 446.77 477.41 464.86 477.41 469.13 484.36 471.65 484.36 471.65 458.61 492.75 458.61 492.75 451.67 505.82 451.67 505.82 456.98 531.45 456.98 531.45 460.66 533.97 460.66 533.97 490.49 544.27 490.49 551.8 474.96 556.33 474.96 556.33 489.67 566.63 489.67 566.63 484.76 575.93 484.76 575.93 454.94 578.19 454.94 578.19 449.62 574.42 449.62 574.42 445.95 601.31 445.95 601.31 437.77 606.58 437.77 606.58 434.1 612.61 434.1 612.61 444.31 616.63 444.31 616.63 434.91 622.66 434.91 622.66 414.48 639.5 414.48 639.5 391.19 647.79 391.19 650.81 393.64 650.81 412.44 666.89 412.44 666.89 478.23 672.67 478.23 672.67 496.21 680.46 496.21 680.46 457.39 713.63 457.39 713.63 345.43 726.19 345.43 726.19 334.8 738.25 334.8 738.25 345.83 743.28 345.83 743.28 349.92 746.04 349.92 746.04 454.94 757.1 454.94 757.1 469.24 761.37 469.24 761.37 376.89 771.42 376.89 771.42 367.49 782.48 367.49 782.48 376.07 788.76 376.07 788.76 379.75 793.03 379.75 793.03 439 805.34 439 805.34 431.24 812.38 431.24 812.38 436.14 819.16 436.14 819.16 442.68 834.49 442.68 834.49 472.92 854.34 472.92 854.34 456.98 852.33 456.98 852.33 452.89 868.92 452.89 868.92 442.68 875.2 442.68 875.2 432.46 882.74 432.46 882.74 443.08 890.27 443.08 890.27 265.33 903.34 265.33 903.34 251.85 912.14 245.72 912.14 189.74 913.89 189.74 913.89 245.31 916.41 249.4 916.41 256.75 920.43 263.29 939.27 263.29 939.27 426.33 947.82 430.01 950.58 425.51 959.88 425.51 959.88 413.26 964.4 413.26 964.4 406.31 967.92 406.31 967.92 411.62 971.94 411.62 971.94 427.56 975.96 427.56 975.96 423.06 982.49 423.06 982.49 432.05 986.01 432.05 986.01 425.51 991.04 425.51 991.04 428.38 994.81 428.38 994.81 434.1 1008.88 434.1 1008.88 454.94 1015.16 454.94 1015.16 459.43 1019.18 459.43 1019.18 454.53 1029.98 454.53 1029.98 433.28 1034.26 433.28 1034.26 444.72 1039.03 444.72 1039.03 441.86 1042.8 441.86 1042.8 450.44 1048.33 450.44 1048.33 405.49 1053.35 405.49 1053.35 399.36 1062.15 399.36 1062.15 403.86 1070.94 403.86 1070.94 389.15 1075.97 389.15 1075.97 380.16 1082.25 367.9 1082 345.02 1084.01 345.43 1084.01 365.86 1086.52 365.86 1089.79 371.58 1090.54 383.43 1094.31 378.93 1094.56 373.21 1102.1 373.21 1102.1 378.11 1104.36 378.11 1104.36 370.76 1116.68 370.76 1121.95 378.11 1121.95 447.99 1125.72 447.99 1125.72 443.9 1134.02 443.9 1138.54 443.9 1144.32 434.5 1144.32 415.71 1146.83 415.71 1146.83 283.31 1159.39 283.31 1159.39 270.24 1171.71 270.24 1171.71 282.09 1186.28 282.09 1186.28 472.51 1190.55 472.51 1190.55 841.89 0 841.89"/><polygon class="cls-4" points="760.14 410.31 831.93 410.31 831.93 522.59 873.78 513.31 898.64 517.06 898.2 472.52 931.33 464.92 979 475.98 979 553.82 990.2 558.82 990.2 562.5 1024.89 562.5 1024.89 616.77 1045.12 612.28 1057.14 614.1 1056.92 592.57 1072.94 588.89 1096 594.24 1096 841.89 56.74 841.89 56.74 664.4 66.85 655.72 66.85 634 69.94 634 69.94 624.98 74.71 619.3 78.36 623.64 78.36 634 85.39 634 85.39 657.05 97.75 657.05 97.75 620.97 107.58 607.27 114.61 607.27 122.54 619.55 122.47 595.58 125.84 595.58 125.84 561.5 128.09 561.5 128.09 532.1 157.87 532.1 160.4 541.45 160.4 557.15 164.62 557.15 164.62 573.86 167.71 573.86 167.71 594.24 173.04 594.24 173.04 603.93 176.98 603.93 176.98 593.24 187.94 593.24 187.94 574.53 194.96 569.52 194.96 560.83 201.14 557.49 209.57 557.49 209.57 568.51 220.25 568.51 220.25 545.13 223.9 543.12 223.9 538.78 228.96 534.77 237.1 535.1 237.58 541.67 244.41 544.12 246.59 587.08 246.59 558.24 252.98 558.24 252.98 539.58 262.86 527.82 270.42 536.81 270.42 558.24 282.79 558.24 298.63 551.47 310.53 556.79 310.53 531.28 330.87 502.94 345.4 502.94 361.81 528.36 361.68 478.75 368.65 478.75 368.65 408.24 373.3 408.24 373.3 347.41 434.92 347.41 440.15 366.76 440.15 399.25 448.87 399.25 448.87 433.81 455.26 433.81 455.26 475.98 466.31 475.98 466.31 496.03 474.45 496.03 474.45 473.91 497.12 473.91 497.12 435.2 511.65 424.83 511.65 406.86 524.44 399.94 541.87 399.94 541.87 422.75 563.96 422.75 563.96 374.37 571.52 370.22 571.52 361.24 581.98 352.94 598.84 353.63 599.83 367.23 613.95 372.29 622.38 538.63 638.95 527.82 643.6 529.93 643.6 422.75 726.14 387.5 760.14 402.71 760.14 410.31"/><path class="cls-5" d="M683.75,518.28V495.92H689v-7.26h35.68v-8.93h3v-34.6h62.53v43h16.37v67.52h16v20.09h3.93v-58H840.9V442.9H853V439h3.6V426.72h2.29V439h3.6v5h11.13s20.63,5,23.9,40.73h8.52V677.28h7.2V614.22h3.93V598.59H926V580.74h9.82V526.05h8.84v7.25h16V522.7h21.61l6.55,10v-8.37h2.62v8.37h3.27V526.6h17.68V687.32h30.77v65.29h22.27v16.74h6.22v-4.47h3.6v-5h42.56v12.28h17.68V626.49h55v215.4H0V496H35.55V409.15s2.57-9.49,12.42-1.46,48.82,52.56,48.82,52.56V771.81h7.71v-14.6h7.71V458.79s3.43-20.44,19.27-19.72v6.58h3.86v-8s20.13,3.65,28.26,14.59c0,0,7.07-10.58,25.27-13.86v6.2h4.07v-6.93s18.2,3.28,19.92,23.72v117.9h31.26V607.7H260.4V594.56h60v180.9h3.85V547.85h12.42v-8h14.56v5.84h31.06V550h28.48V543.1h18L439.85,550l3.21-6.94h19.27v4.75h61.89V485.43h31.91v-7.3h12.63v-5.84h7.71v5.11h22.06v-3.28h7.71v8h15.42V611.72H630V522.66h7.28v-5.47h7.92v3.28h2.14v-5.84h6.21v3.65h30.19Z" transform="translate(0 0)"/></svg>