<svg width="60" height="60" viewBox="0 0 60 60" fill="none" xmlns="http://www.w3.org/2000/svg">
<circle cx="30" cy="30" r="30" fill="#174D89"/>
<g clip-path="url(#clip0)">
<path fill-rule="evenodd" clip-rule="evenodd" d="M47.1864 21.1661C47.686 21.4232 48 21.9379 48 22.4998V37.4998C48 38.0617 47.686 38.5765 47.1864 38.8336C46.6868 39.0907 46.0854 39.047 45.6281 38.7204L35.1281 31.2204C34.7339 30.9389 34.5 30.4842 34.5 29.9998C34.5 29.5154 34.7339 29.0608 35.1281 28.7792L45.6281 21.2792C46.0854 20.9526 46.6868 20.909 47.1864 21.1661ZM38.5807 29.9998L45 34.585V25.4146L38.5807 29.9998Z" fill="white"/>
<path fill-rule="evenodd" clip-rule="evenodd" d="M16.5 21.0001C15.6716 21.0001 15 21.6717 15 22.5001V37.5001C15 38.3286 15.6716 39.0001 16.5 39.0001H33C33.8284 39.0001 34.5 38.3286 34.5 37.5001V22.5001C34.5 21.6717 33.8284 21.0001 33 21.0001H16.5ZM12 22.5001C12 20.0148 14.0147 18.0001 16.5 18.0001H33C35.4853 18.0001 37.5 20.0148 37.5 22.5001V37.5001C37.5 39.9854 35.4853 42.0001 33 42.0001H16.5C14.0147 42.0001 12 39.9854 12 37.5001V22.5001Z" fill="white"/>
</g>
<defs>
<clipPath id="clip0">
<rect width="36" height="36" fill="white" transform="translate(12 12)"/>
</clipPath>
</defs>
</svg>
