<svg width="60" height="60" viewBox="0 0 60 60" fill="none" xmlns="http://www.w3.org/2000/svg">
<circle cx="30" cy="30" r="30" fill="#174D89"/>
<path fill-rule="evenodd" clip-rule="evenodd" d="M13.5 16.5C13.5 15.6716 14.1716 15 15 15H24C25.9891 15 27.8968 15.7902 29.3033 17.1967C30.7098 18.6032 31.5 20.5109 31.5 22.5V43.5C31.5 44.3284 30.8284 45 30 45C29.1716 45 28.5 44.3284 28.5 43.5C28.5 42.7044 28.1839 41.9413 27.6213 41.3787C27.0587 40.8161 26.2957 40.5 25.5 40.5H15C14.1716 40.5 13.5 39.8284 13.5 39V16.5ZM28.5 38.3038V22.5C28.5 21.3065 28.0259 20.1619 27.182 19.318C26.3381 18.4741 25.1935 18 24 18H16.5V37.5H25.5C26.5623 37.5 27.5956 37.7817 28.5 38.3038Z" fill="white"/>
<path fill-rule="evenodd" clip-rule="evenodd" d="M30.6967 17.1967C32.1032 15.7902 34.0109 15 36 15H45C45.8284 15 46.5 15.6716 46.5 16.5V39C46.5 39.8284 45.8284 40.5 45 40.5H34.5C33.7043 40.5 32.9413 40.8161 32.3787 41.3787C31.8161 41.9413 31.5 42.7044 31.5 43.5C31.5 44.3284 30.8284 45 30 45C29.1716 45 28.5 44.3284 28.5 43.5V22.5C28.5 20.5109 29.2902 18.6032 30.6967 17.1967ZM31.5 38.3038C32.4044 37.7817 33.4377 37.5 34.5 37.5H43.5V18H36C34.8065 18 33.6619 18.4741 32.818 19.318C31.9741 20.1619 31.5 21.3065 31.5 22.5V38.3038Z" fill="white"/>
</svg>
