<svg width="60" height="60" viewBox="0 0 60 60" fill="none" xmlns="http://www.w3.org/2000/svg">
<circle cx="30" cy="30" r="30" fill="#174D89"/>
<path fill-rule="evenodd" clip-rule="evenodd" d="M18 18C17.1716 18 16.5 18.6716 16.5 19.5V34.5C16.5 35.3284 17.1716 36 18 36H42C42.8284 36 43.5 35.3284 43.5 34.5V19.5C43.5 18.6716 42.8284 18 42 18H18ZM13.5 19.5C13.5 17.0147 15.5147 15 18 15H42C44.4853 15 46.5 17.0147 46.5 19.5V34.5C46.5 36.9853 44.4853 39 42 39H18C15.5147 39 13.5 36.9853 13.5 34.5V19.5Z" fill="white"/>
<path fill-rule="evenodd" clip-rule="evenodd" d="M22.5 43.5C22.5 42.6716 23.1716 42 24 42H36C36.8284 42 37.5 42.6716 37.5 43.5C37.5 44.3284 36.8284 45 36 45H24C23.1716 45 22.5 44.3284 22.5 43.5Z" fill="white"/>
<path fill-rule="evenodd" clip-rule="evenodd" d="M30 36.0001C30.8284 36.0001 31.5 36.6717 31.5 37.5001V43.5001C31.5 44.3285 30.8284 45.0001 30 45.0001C29.1716 45.0001 28.5 44.3285 28.5 43.5001V37.5001C28.5 36.6717 29.1716 36.0001 30 36.0001Z" fill="white"/>
</svg>
